<svg xmlns="http://www.w3.org/2000/svg" viewBox="0 0 500 500"><g id="freepik--Floor--inject-226"><path d="M49.23,464.05c128.63-.61,272.91-.62,401.54,0-128.63,.62-272.91,.61-401.54,0h0Z" style="fill:#263238;"></path></g><g id="freepik--Building--inject-226"><g><rect x="305.1" y="372.83" width="89.64" height="91.22" transform="translate(699.84 836.88) rotate(180)" style="fill:#455a64;"></rect><rect x="215.46" y="319.52" width="89.64" height="144.53" transform="translate(520.56 783.57) rotate(180)" style="fill:#455a64;"></rect><rect x="181.18" y="319.52" width="34.27" height="144.53" style="fill:#37474f;"></rect><rect x="276.81" y="331.41" width="17.65" height="7.62" transform="translate(571.28 670.44) rotate(180)" style="fill:#fff;"></rect><rect x="276.81" y="347.69" width="17.65" height="7.62" transform="translate(571.28 703) rotate(180)" style="fill:#fff;"></rect><rect x="276.81" y="363.97" width="17.65" height="7.62" transform="translate(571.28 735.56) rotate(180)" style="fill:#fff;"></rect><rect x="276.81" y="380.25" width="17.65" height="7.62" transform="translate(571.28 768.12) rotate(180)" style="fill:#fff;"></rect><rect x="276.81" y="396.53" width="17.65" height="7.62" transform="translate(571.28 800.68) rotate(180)" style="fill:#fff;"></rect><rect x="276.81" y="412.81" width="17.65" height="7.62" transform="translate(571.28 833.24) rotate(180)" style="fill:#fff;"></rect><rect x="276.81" y="429.09" width="17.65" height="7.62" transform="translate(571.28 865.81) rotate(180)" style="fill:#fff;"></rect><rect x="251.42" y="331.41" width="17.65" height="7.62" transform="translate(520.49 670.44) rotate(180)" style="fill:#fff;"></rect><rect x="251.42" y="347.69" width="17.65" height="7.62" transform="translate(520.49 703) rotate(180)" style="fill:#fff;"></rect><rect x="251.42" y="363.97" width="17.65" height="7.62" transform="translate(520.49 735.56) rotate(180)" style="fill:#fff;"></rect><rect x="251.42" y="380.25" width="17.65" height="7.62" transform="translate(520.49 768.12) rotate(180)" style="fill:#fff;"></rect><rect x="251.42" y="396.53" width="17.65" height="7.62" transform="translate(520.49 800.68) rotate(180)" style="fill:#fff;"></rect><rect x="251.42" y="412.81" width="17.65" height="7.62" transform="translate(520.49 833.24) rotate(180)" style="fill:#fff;"></rect><rect x="251.42" y="429.09" width="17.65" height="7.62" transform="translate(520.49 865.81) rotate(180)" style="fill:#fff;"></rect><rect x="226.09" y="331.41" width="17.65" height="7.62" transform="translate(469.83 670.44) rotate(180)" style="fill:#fff;"></rect><rect x="226.09" y="347.69" width="17.65" height="7.62" transform="translate(469.83 703) rotate(180)" style="fill:#fff;"></rect><rect x="226.09" y="363.97" width="17.65" height="7.62" transform="translate(469.83 735.56) rotate(180)" style="fill:#fff;"></rect><rect x="226.09" y="380.25" width="17.65" height="7.62" transform="translate(469.83 768.12) rotate(180)" style="fill:#fff;"></rect><rect x="226.09" y="396.53" width="17.65" height="7.62" transform="translate(469.83 800.68) rotate(180)" style="fill:#fff;"></rect><rect x="226.09" y="412.81" width="17.65" height="7.62" transform="translate(469.83 833.24) rotate(180)" style="fill:#fff;"></rect><rect x="226.09" y="429.09" width="17.65" height="7.62" transform="translate(469.83 865.81) rotate(180)" style="fill:#fff;"></rect><rect x="366.46" y="380.25" width="17.65" height="7.62" transform="translate(750.57 768.12) rotate(180)" style="fill:#fff;"></rect><rect x="366.46" y="396.53" width="17.65" height="7.62" transform="translate(750.57 800.68) rotate(180)" style="fill:#fff;"></rect><rect x="366.46" y="412.81" width="17.65" height="7.62" transform="translate(750.57 833.24) rotate(180)" style="fill:#fff;"></rect><rect x="366.46" y="429.09" width="17.65" height="7.62" transform="translate(750.57 865.81) rotate(180)" style="fill:#fff;"></rect><rect x="341.06" y="380.25" width="17.65" height="7.62" transform="translate(699.78 768.12) rotate(180)" style="fill:#fff;"></rect><rect x="341.06" y="396.53" width="17.65" height="7.62" transform="translate(699.78 800.68) rotate(180)" style="fill:#fff;"></rect><rect x="341.06" y="412.81" width="17.65" height="7.62" transform="translate(699.78 833.24) rotate(180)" style="fill:#fff;"></rect><rect x="341.06" y="429.09" width="17.65" height="7.62" transform="translate(699.78 865.81) rotate(180)" style="fill:#fff;"></rect><rect x="315.73" y="380.25" width="17.65" height="7.62" transform="translate(649.12 768.12) rotate(180)" style="fill:#fff;"></rect><rect x="315.73" y="396.53" width="17.65" height="7.62" transform="translate(649.12 800.68) rotate(180)" style="fill:#fff;"></rect><rect x="315.73" y="412.81" width="17.65" height="7.62" transform="translate(649.12 833.24) rotate(180)" style="fill:#fff;"></rect><rect x="315.73" y="429.09" width="17.65" height="7.62" transform="translate(649.12 865.81) rotate(180)" style="fill:#fff;"></rect><rect x="189.49" y="331.41" width="17.65" height="7.62" transform="translate(396.64 670.44) rotate(180)" style="fill:#fff;"></rect><rect x="189.49" y="347.69" width="17.65" height="7.62" transform="translate(396.64 703) rotate(180)" style="fill:#fff;"></rect><rect x="189.49" y="363.97" width="17.65" height="7.62" transform="translate(396.64 735.56) rotate(180)" style="fill:#fff;"></rect><rect x="189.49" y="380.25" width="17.65" height="7.62" transform="translate(396.64 768.12) rotate(180)" style="fill:#fff;"></rect><rect x="189.49" y="396.53" width="17.65" height="7.62" transform="translate(396.64 800.68) rotate(180)" style="fill:#fff;"></rect><rect x="189.49" y="412.81" width="17.65" height="7.62" transform="translate(396.64 833.24) rotate(180)" style="fill:#fff;"></rect><rect x="189.49" y="429.09" width="17.65" height="7.62" transform="translate(396.64 865.81) rotate(180)" style="fill:#fff;"></rect><g><rect x="255.5" y="277.06" width="3.18" height="42.46" style="fill:#a6a6a6;"></rect><rect x="258.69" y="277.06" width="3.18" height="42.46" style="fill:#c7c7c7;"></rect></g><g><rect x="212.27" y="277.06" width="3.18" height="42.46" style="fill:#a6a6a6;"></rect><rect x="215.46" y="277.06" width="3.18" height="42.46" style="fill:#c7c7c7;"></rect></g><g><rect x="298.73" y="277.06" width="3.18" height="42.46" style="fill:#a6a6a6;"></rect><rect x="301.92" y="277.06" width="3.18" height="42.46" style="fill:#c7c7c7;"></rect></g><g><rect x="345.15" y="330.27" width="3.18" height="42.46" style="fill:#a6a6a6;"></rect><rect x="348.33" y="330.27" width="3.18" height="42.46" style="fill:#c7c7c7;"></rect></g><g><rect x="388.38" y="330.27" width="3.18" height="42.46" style="fill:#a6a6a6;"></rect><rect x="391.56" y="330.27" width="3.18" height="42.46" style="fill:#c7c7c7;"></rect></g><g><rect x="181.18" y="277.06" width="3.18" height="42.46" style="fill:#a6a6a6;"></rect><rect x="184.37" y="277.06" width="3.18" height="42.46" style="fill:#c7c7c7;"></rect></g></g></g><g id="freepik--Crane--inject-226"><g><g><polygon points="77.54 384.85 77.04 384.85 77.04 267.15 79.07 264.46 75.88 133.23 75.91 133.17 128.41 32.99 135.47 30.56 135.56 30.59 374.73 115.12 374.56 115.59 135.47 31.09 128.76 33.4 76.38 133.35 79.58 264.62 77.54 267.32 77.54 384.85" style="fill:#263238;"></polygon><polygon points="82.93 384.85 82.43 384.85 82.43 267.32 80.39 264.62 80.39 264.53 83.59 133.23 83.61 133.18 132.22 36.16 132.66 36.38 84.09 133.35 80.89 264.46 82.93 267.15 82.93 384.85" style="fill:#263238;"></polygon></g><rect x="68.14" y="446.16" width="95.51" height="7.52" style="fill:#c7c7c7;"></rect><rect x="62.48" y="453.68" width="106.83" height="10.37" style="fill:#a6a6a6;"></rect><g><g><g><rect x="130.03" y="157.03" width=".89" height="289.13" style="fill:#B0BEC5;"></rect><rect x="133.95" y="157.03" width=".89" height="289.13" style="fill:#B0BEC5;"></rect><rect x="131.99" y="442.57" width=".89" height="3.02" transform="translate(576.52 311.64) rotate(90)" style="fill:#B0BEC5;"></rect><rect x="131.99" y="439.61" width=".89" height="3.02" transform="translate(573.56 308.68) rotate(90)" style="fill:#B0BEC5;"></rect><rect x="131.99" y="436.65" width=".89" height="3.02" transform="translate(570.6 305.72) rotate(90)" style="fill:#B0BEC5;"></rect><rect x="131.99" y="433.69" width=".89" height="3.02" transform="translate(567.64 302.76) rotate(90)" style="fill:#B0BEC5;"></rect><rect x="131.99" y="430.72" width=".89" height="3.02" transform="translate(564.68 299.79) rotate(90)" style="fill:#B0BEC5;"></rect><rect x="131.99" y="427.76" width=".89" height="3.02" transform="translate(561.71 296.83) rotate(90)" style="fill:#B0BEC5;"></rect><rect x="131.99" y="424.8" width=".89" height="3.02" transform="translate(558.75 293.87) rotate(90)" style="fill:#B0BEC5;"></rect><rect x="131.99" y="421.84" width=".89" height="3.02" transform="translate(555.79 290.91) rotate(90)" style="fill:#B0BEC5;"></rect><rect x="131.99" y="418.88" width=".89" height="3.02" transform="translate(552.83 287.95) rotate(90)" style="fill:#B0BEC5;"></rect><rect x="131.99" y="415.92" width=".89" height="3.02" transform="translate(549.87 284.99) rotate(90)" style="fill:#B0BEC5;"></rect><rect x="131.99" y="412.96" width=".89" height="3.02" transform="translate(546.91 282.03) rotate(90)" style="fill:#B0BEC5;"></rect><rect x="131.99" y="409.99" width=".89" height="3.02" transform="translate(543.95 279.07) rotate(90)" style="fill:#B0BEC5;"></rect><rect x="131.99" y="407.03" width=".89" height="3.02" transform="translate(540.98 276.1) rotate(90)" style="fill:#B0BEC5;"></rect><rect x="131.99" y="404.07" width=".89" height="3.02" transform="translate(538.02 273.14) rotate(90)" style="fill:#B0BEC5;"></rect><rect x="131.99" y="401.11" width=".89" height="3.02" transform="translate(535.06 270.18) rotate(90)" style="fill:#B0BEC5;"></rect><rect x="131.99" y="398.15" width=".89" height="3.02" transform="translate(532.1 267.22) rotate(90)" style="fill:#B0BEC5;"></rect><rect x="131.99" y="395.19" width=".89" height="3.02" transform="translate(529.14 264.26) rotate(90)" style="fill:#B0BEC5;"></rect><rect x="131.99" y="392.23" width=".89" height="3.02" transform="translate(526.18 261.3) rotate(90)" style="fill:#B0BEC5;"></rect><rect x="131.99" y="389.27" width=".89" height="3.02" transform="translate(523.22 258.34) rotate(90)" style="fill:#B0BEC5;"></rect><rect x="131.99" y="386.3" width=".89" height="3.02" transform="translate(520.26 255.37) rotate(90)" style="fill:#B0BEC5;"></rect><rect x="131.99" y="383.34" width=".89" height="3.02" transform="translate(517.29 252.41) rotate(90)" style="fill:#B0BEC5;"></rect><rect x="131.99" y="380.38" width=".89" height="3.02" transform="translate(514.33 249.45) rotate(90)" style="fill:#B0BEC5;"></rect><rect x="131.99" y="377.42" width=".89" height="3.02" transform="translate(511.37 246.49) rotate(90)" style="fill:#B0BEC5;"></rect><rect x="131.99" y="374.46" width=".89" height="3.02" transform="translate(508.41 243.53) rotate(90)" style="fill:#B0BEC5;"></rect><rect x="131.99" y="371.5" width=".89" height="3.02" transform="translate(505.45 240.57) rotate(90)" style="fill:#B0BEC5;"></rect><rect x="131.99" y="368.54" width=".89" height="3.02" transform="translate(502.49 237.61) rotate(90)" style="fill:#B0BEC5;"></rect><rect x="131.99" y="365.57" width=".89" height="3.02" transform="translate(499.53 234.64) rotate(90)" style="fill:#B0BEC5;"></rect><rect x="131.99" y="362.61" width=".89" height="3.02" transform="translate(496.56 231.68) rotate(90)" style="fill:#B0BEC5;"></rect><rect x="131.99" y="359.65" width=".89" height="3.02" transform="translate(493.6 228.72) rotate(90)" style="fill:#B0BEC5;"></rect><rect x="131.99" y="356.69" width=".89" height="3.02" transform="translate(490.64 225.76) rotate(90)" style="fill:#B0BEC5;"></rect><rect x="131.99" y="353.73" width=".89" height="3.02" transform="translate(487.68 222.8) rotate(90)" style="fill:#B0BEC5;"></rect><rect x="131.99" y="350.77" width=".89" height="3.02" transform="translate(484.72 219.84) rotate(90)" style="fill:#B0BEC5;"></rect><rect x="131.99" y="347.81" width=".89" height="3.02" transform="translate(481.76 216.88) rotate(90)" style="fill:#B0BEC5;"></rect><rect x="131.99" y="344.84" width=".89" height="3.02" transform="translate(478.8 213.92) rotate(90)" style="fill:#B0BEC5;"></rect><rect x="131.99" y="341.88" width=".89" height="3.02" transform="translate(475.84 210.95) rotate(90)" style="fill:#B0BEC5;"></rect><rect x="131.99" y="338.92" width=".89" height="3.02" transform="translate(472.87 207.99) rotate(90)" style="fill:#B0BEC5;"></rect><rect x="131.99" y="335.96" width=".89" height="3.02" transform="translate(469.91 205.03) rotate(90)" style="fill:#B0BEC5;"></rect><rect x="131.99" y="333" width=".89" height="3.02" transform="translate(466.95 202.07) rotate(90)" style="fill:#B0BEC5;"></rect><rect x="131.99" y="330.04" width=".89" height="3.02" transform="translate(463.99 199.11) rotate(90)" style="fill:#B0BEC5;"></rect><rect x="131.99" y="327.08" width=".89" height="3.02" transform="translate(461.03 196.15) rotate(90)" style="fill:#B0BEC5;"></rect><rect x="131.99" y="324.12" width=".89" height="3.02" transform="translate(458.07 193.19) rotate(90)" style="fill:#B0BEC5;"></rect><rect x="131.99" y="321.15" width=".89" height="3.02" transform="translate(455.11 190.22) rotate(90)" style="fill:#B0BEC5;"></rect><rect x="131.99" y="318.19" width=".89" height="3.02" transform="translate(452.14 187.26) rotate(90)" style="fill:#B0BEC5;"></rect><rect x="131.99" y="315.23" width=".89" height="3.02" transform="translate(449.18 184.3) rotate(90)" style="fill:#B0BEC5;"></rect><rect x="131.99" y="312.27" width=".89" height="3.02" transform="translate(446.22 181.34) rotate(90)" style="fill:#B0BEC5;"></rect><rect x="131.99" y="309.31" width=".89" height="3.02" transform="translate(443.26 178.38) rotate(90)" style="fill:#B0BEC5;"></rect><rect x="131.99" y="306.35" width=".89" height="3.02" transform="translate(440.3 175.42) rotate(90)" style="fill:#B0BEC5;"></rect><rect x="131.99" y="303.39" width=".89" height="3.02" transform="translate(437.34 172.46) rotate(90)" style="fill:#B0BEC5;"></rect><rect x="131.99" y="300.42" width=".89" height="3.02" transform="translate(434.38 169.5) rotate(90)" style="fill:#B0BEC5;"></rect><rect x="131.99" y="297.46" width=".89" height="3.02" transform="translate(431.42 166.53) rotate(90)" style="fill:#B0BEC5;"></rect><rect x="131.99" y="294.5" width=".89" height="3.02" transform="translate(428.45 163.57) rotate(90)" style="fill:#B0BEC5;"></rect><rect x="131.99" y="291.54" width=".89" height="3.02" transform="translate(425.49 160.61) rotate(90)" style="fill:#B0BEC5;"></rect><rect x="131.99" y="288.58" width=".89" height="3.02" transform="translate(422.53 157.65) rotate(90)" style="fill:#B0BEC5;"></rect><rect x="131.99" y="285.62" width=".89" height="3.02" transform="translate(419.57 154.69) rotate(90)" style="fill:#B0BEC5;"></rect><rect x="131.99" y="282.66" width=".89" height="3.02" transform="translate(416.61 151.73) rotate(90)" style="fill:#B0BEC5;"></rect><rect x="131.99" y="279.7" width=".89" height="3.02" transform="translate(413.65 148.77) rotate(90)" style="fill:#B0BEC5;"></rect><rect x="131.99" y="276.73" width=".89" height="3.02" transform="translate(410.69 145.8) rotate(90)" style="fill:#B0BEC5;"></rect><rect x="131.99" y="273.77" width=".89" height="3.02" transform="translate(407.72 142.84) rotate(90)" style="fill:#B0BEC5;"></rect><rect x="131.99" y="270.81" width=".89" height="3.02" transform="translate(404.76 139.88) rotate(90)" style="fill:#B0BEC5;"></rect><rect x="131.99" y="267.85" width=".89" height="3.02" transform="translate(401.8 136.92) rotate(90)" style="fill:#B0BEC5;"></rect><rect x="131.99" y="264.89" width=".89" height="3.02" transform="translate(398.84 133.96) rotate(90)" style="fill:#B0BEC5;"></rect><rect x="131.99" y="261.93" width=".89" height="3.02" transform="translate(395.88 131) rotate(90)" style="fill:#B0BEC5;"></rect><rect x="131.99" y="258.97" width=".89" height="3.02" transform="translate(392.92 128.04) rotate(90)" style="fill:#B0BEC5;"></rect><rect x="131.99" y="256" width=".89" height="3.02" transform="translate(389.96 125.08) rotate(90)" style="fill:#B0BEC5;"></rect><rect x="131.99" y="253.04" width=".89" height="3.02" transform="translate(386.99 122.11) rotate(90)" style="fill:#B0BEC5;"></rect><rect x="131.99" y="250.08" width=".89" height="3.02" transform="translate(384.03 119.15) rotate(90)" style="fill:#B0BEC5;"></rect><rect x="131.99" y="247.12" width=".89" height="3.02" transform="translate(381.07 116.19) rotate(90)" style="fill:#B0BEC5;"></rect><rect x="131.99" y="244.16" width=".89" height="3.02" transform="translate(378.11 113.23) rotate(90)" style="fill:#B0BEC5;"></rect><rect x="131.99" y="241.2" width=".89" height="3.02" transform="translate(375.15 110.27) rotate(90)" style="fill:#B0BEC5;"></rect><rect x="131.99" y="238.24" width=".89" height="3.02" transform="translate(372.19 107.31) rotate(90)" style="fill:#B0BEC5;"></rect><rect x="131.99" y="235.28" width=".89" height="3.02" transform="translate(369.23 104.35) rotate(90)" style="fill:#B0BEC5;"></rect><rect x="131.99" y="232.31" width=".89" height="3.02" transform="translate(366.27 101.38) rotate(90)" style="fill:#B0BEC5;"></rect><rect x="131.99" y="229.35" width=".89" height="3.02" transform="translate(363.3 98.42) rotate(90)" style="fill:#B0BEC5;"></rect><rect x="131.99" y="226.39" width=".89" height="3.02" transform="translate(360.34 95.46) rotate(90)" style="fill:#B0BEC5;"></rect><rect x="131.99" y="223.43" width=".89" height="3.02" transform="translate(357.38 92.5) rotate(90)" style="fill:#B0BEC5;"></rect><rect x="131.99" y="220.47" width=".89" height="3.02" transform="translate(354.42 89.54) rotate(90)" style="fill:#B0BEC5;"></rect><rect x="131.99" y="217.51" width=".89" height="3.02" transform="translate(351.46 86.58) rotate(90)" style="fill:#B0BEC5;"></rect><rect x="131.99" y="214.55" width=".89" height="3.02" transform="translate(348.5 83.62) rotate(90)" style="fill:#B0BEC5;"></rect><rect x="131.99" y="211.58" width=".89" height="3.02" transform="translate(345.54 80.66) rotate(90)" style="fill:#B0BEC5;"></rect><rect x="131.99" y="208.62" width=".89" height="3.02" transform="translate(342.57 77.69) rotate(90)" style="fill:#B0BEC5;"></rect><rect x="131.99" y="205.66" width=".89" height="3.02" transform="translate(339.61 74.73) rotate(90)" style="fill:#B0BEC5;"></rect><rect x="131.99" y="202.7" width=".89" height="3.02" transform="translate(336.65 71.77) rotate(90)" style="fill:#B0BEC5;"></rect><rect x="131.99" y="199.74" width=".89" height="3.02" transform="translate(333.69 68.81) rotate(90)" style="fill:#B0BEC5;"></rect><rect x="131.99" y="196.78" width=".89" height="3.02" transform="translate(330.73 65.85) rotate(90)" style="fill:#B0BEC5;"></rect><rect x="131.99" y="193.82" width=".89" height="3.02" transform="translate(327.77 62.89) rotate(90)" style="fill:#B0BEC5;"></rect><rect x="131.99" y="190.86" width=".89" height="3.02" transform="translate(324.81 59.93) rotate(90)" style="fill:#B0BEC5;"></rect><rect x="131.99" y="187.89" width=".89" height="3.02" transform="translate(321.85 56.96) rotate(90)" style="fill:#B0BEC5;"></rect><rect x="131.99" y="184.93" width=".89" height="3.02" transform="translate(318.88 54) rotate(90)" style="fill:#B0BEC5;"></rect><rect x="131.99" y="181.97" width=".89" height="3.02" transform="translate(315.92 51.04) rotate(90)" style="fill:#B0BEC5;"></rect><rect x="131.99" y="179.01" width=".89" height="3.02" transform="translate(312.96 48.08) rotate(90)" style="fill:#B0BEC5;"></rect><rect x="131.99" y="176.05" width=".89" height="3.02" transform="translate(310 45.12) rotate(90)" style="fill:#B0BEC5;"></rect><rect x="131.99" y="173.09" width=".89" height="3.02" transform="translate(307.04 42.16) rotate(90)" style="fill:#B0BEC5;"></rect><rect x="131.99" y="170.13" width=".89" height="3.02" transform="translate(304.08 39.2) rotate(90)" style="fill:#B0BEC5;"></rect><rect x="131.99" y="167.16" width=".89" height="3.02" transform="translate(301.12 36.23) rotate(90)" style="fill:#B0BEC5;"></rect><rect x="131.99" y="164.2" width=".89" height="3.02" transform="translate(298.15 33.27) rotate(90)" style="fill:#B0BEC5;"></rect><rect x="131.99" y="161.24" width=".89" height="3.02" transform="translate(295.19 30.31) rotate(90)" style="fill:#B0BEC5;"></rect><rect x="131.99" y="158.28" width=".89" height="3.02" transform="translate(292.23 27.35) rotate(90)" style="fill:#B0BEC5;"></rect></g><g style="opacity:.3;"><rect x="130.03" y="157.03" width=".89" height="289.13"></rect><rect x="133.95" y="157.03" width=".89" height="289.13"></rect><rect x="131.99" y="442.57" width=".89" height="3.02" transform="translate(576.52 311.64) rotate(90)"></rect><rect x="131.99" y="439.61" width=".89" height="3.02" transform="translate(573.56 308.68) rotate(90)"></rect><rect x="131.99" y="436.65" width=".89" height="3.02" transform="translate(570.6 305.72) rotate(90)"></rect><rect x="131.99" y="433.69" width=".89" height="3.02" transform="translate(567.64 302.76) rotate(90)"></rect><rect x="131.99" y="430.72" width=".89" height="3.02" transform="translate(564.68 299.79) rotate(90)"></rect><rect x="131.99" y="427.76" width=".89" height="3.02" transform="translate(561.71 296.83) rotate(90)"></rect><rect x="131.99" y="424.8" width=".89" height="3.02" transform="translate(558.75 293.87) rotate(90)"></rect><rect x="131.99" y="421.84" width=".89" height="3.02" transform="translate(555.79 290.91) rotate(90)"></rect><rect x="131.99" y="418.88" width=".89" height="3.02" transform="translate(552.83 287.95) rotate(90)"></rect><rect x="131.99" y="415.92" width=".89" height="3.02" transform="translate(549.87 284.99) rotate(90)"></rect><rect x="131.99" y="412.96" width=".89" height="3.02" transform="translate(546.91 282.03) rotate(90)"></rect><rect x="131.99" y="409.99" width=".89" height="3.02" transform="translate(543.95 279.07) rotate(90)"></rect><rect x="131.99" y="407.03" width=".89" height="3.02" transform="translate(540.98 276.1) rotate(90)"></rect><rect x="131.99" y="404.07" width=".89" height="3.02" transform="translate(538.02 273.14) rotate(90)"></rect><rect x="131.99" y="401.11" width=".89" height="3.02" transform="translate(535.06 270.18) rotate(90)"></rect><rect x="131.99" y="398.15" width=".89" height="3.02" transform="translate(532.1 267.22) rotate(90)"></rect><rect x="131.99" y="395.19" width=".89" height="3.02" transform="translate(529.14 264.26) rotate(90)"></rect><rect x="131.99" y="392.23" width=".89" height="3.02" transform="translate(526.18 261.3) rotate(90)"></rect><rect x="131.99" y="389.27" width=".89" height="3.02" transform="translate(523.22 258.34) rotate(90)"></rect><rect x="131.99" y="386.3" width=".89" height="3.02" transform="translate(520.26 255.37) rotate(90)"></rect><rect x="131.99" y="383.34" width=".89" height="3.02" transform="translate(517.29 252.41) rotate(90)"></rect><rect x="131.99" y="380.38" width=".89" height="3.02" transform="translate(514.33 249.45) rotate(90)"></rect><rect x="131.99" y="377.42" width=".89" height="3.02" transform="translate(511.37 246.49) rotate(90)"></rect><rect x="131.99" y="374.46" width=".89" height="3.02" transform="translate(508.41 243.53) rotate(90)"></rect><rect x="131.99" y="371.5" width=".89" height="3.02" transform="translate(505.45 240.57) rotate(90)"></rect><rect x="131.99" y="368.54" width=".89" height="3.02" transform="translate(502.49 237.61) rotate(90)"></rect><rect x="131.99" y="365.57" width=".89" height="3.02" transform="translate(499.53 234.64) rotate(90)"></rect><rect x="131.99" y="362.61" width=".89" height="3.02" transform="translate(496.56 231.68) rotate(90)"></rect><rect x="131.99" y="359.65" width=".89" height="3.02" transform="translate(493.6 228.72) rotate(90)"></rect><rect x="131.99" y="356.69" width=".89" height="3.02" transform="translate(490.64 225.76) rotate(90)"></rect><rect x="131.99" y="353.73" width=".89" height="3.02" transform="translate(487.68 222.8) rotate(90)"></rect><rect x="131.99" y="350.77" width=".89" height="3.02" transform="translate(484.72 219.84) rotate(90)"></rect><rect x="131.99" y="347.81" width=".89" height="3.02" transform="translate(481.76 216.88) rotate(90)"></rect><rect x="131.99" y="344.84" width=".89" height="3.02" transform="translate(478.8 213.92) rotate(90)"></rect><rect x="131.99" y="341.88" width=".89" height="3.02" transform="translate(475.84 210.95) rotate(90)"></rect><rect x="131.99" y="338.92" width=".89" height="3.02" transform="translate(472.87 207.99) rotate(90)"></rect><rect x="131.99" y="335.96" width=".89" height="3.02" transform="translate(469.91 205.03) rotate(90)"></rect><rect x="131.99" y="333" width=".89" height="3.02" transform="translate(466.95 202.07) rotate(90)"></rect><rect x="131.99" y="330.04" width=".89" height="3.02" transform="translate(463.99 199.11) rotate(90)"></rect><rect x="131.99" y="327.08" width=".89" height="3.02" transform="translate(461.03 196.15) rotate(90)"></rect><rect x="131.99" y="324.12" width=".89" height="3.02" transform="translate(458.07 193.19) rotate(90)"></rect><rect x="131.99" y="321.15" width=".89" height="3.02" transform="translate(455.11 190.22) rotate(90)"></rect><rect x="131.99" y="318.19" width=".89" height="3.02" transform="translate(452.14 187.26) rotate(90)"></rect><rect x="131.99" y="315.23" width=".89" height="3.02" transform="translate(449.18 184.3) rotate(90)"></rect><rect x="131.99" y="312.27" width=".89" height="3.02" transform="translate(446.22 181.34) rotate(90)"></rect><rect x="131.99" y="309.31" width=".89" height="3.02" transform="translate(443.26 178.38) rotate(90)"></rect><rect x="131.99" y="306.35" width=".89" height="3.02" transform="translate(440.3 175.42) rotate(90)"></rect><rect x="131.99" y="303.39" width=".89" height="3.02" transform="translate(437.34 172.46) rotate(90)"></rect><rect x="131.99" y="300.42" width=".89" height="3.02" transform="translate(434.38 169.5) rotate(90)"></rect><rect x="131.99" y="297.46" width=".89" height="3.02" transform="translate(431.42 166.53) rotate(90)"></rect><rect x="131.99" y="294.5" width=".89" height="3.02" transform="translate(428.45 163.57) rotate(90)"></rect><rect x="131.99" y="291.54" width=".89" height="3.02" transform="translate(425.49 160.61) rotate(90)"></rect><rect x="131.99" y="288.58" width=".89" height="3.02" transform="translate(422.53 157.65) rotate(90)"></rect><rect x="131.99" y="285.62" width=".89" height="3.02" transform="translate(419.57 154.69) rotate(90)"></rect><rect x="131.99" y="282.66" width=".89" height="3.02" transform="translate(416.61 151.73) rotate(90)"></rect><rect x="131.99" y="279.7" width=".89" height="3.02" transform="translate(413.65 148.77) rotate(90)"></rect><rect x="131.99" y="276.73" width=".89" height="3.02" transform="translate(410.69 145.8) rotate(90)"></rect><rect x="131.99" y="273.77" width=".89" height="3.02" transform="translate(407.72 142.84) rotate(90)"></rect><rect x="131.99" y="270.81" width=".89" height="3.02" transform="translate(404.76 139.88) rotate(90)"></rect><rect x="131.99" y="267.85" width=".89" height="3.02" transform="translate(401.8 136.92) rotate(90)"></rect><rect x="131.99" y="264.89" width=".89" height="3.02" transform="translate(398.84 133.96) rotate(90)"></rect><rect x="131.99" y="261.93" width=".89" height="3.02" transform="translate(395.88 131) rotate(90)"></rect><rect x="131.99" y="258.97" width=".89" height="3.02" transform="translate(392.92 128.04) rotate(90)"></rect><rect x="131.99" y="256" width=".89" height="3.02" transform="translate(389.96 125.08) rotate(90)"></rect><rect x="131.99" y="253.04" width=".89" height="3.02" transform="translate(386.99 122.11) rotate(90)"></rect><rect x="131.99" y="250.08" width=".89" height="3.02" transform="translate(384.03 119.15) rotate(90)"></rect><rect x="131.99" y="247.12" width=".89" height="3.02" transform="translate(381.07 116.19) rotate(90)"></rect><rect x="131.99" y="244.16" width=".89" height="3.02" transform="translate(378.11 113.23) rotate(90)"></rect><rect x="131.99" y="241.2" width=".89" height="3.02" transform="translate(375.15 110.27) rotate(90)"></rect><rect x="131.99" y="238.24" width=".89" height="3.02" transform="translate(372.19 107.31) rotate(90)"></rect><rect x="131.99" y="235.28" width=".89" height="3.02" transform="translate(369.23 104.35) rotate(90)"></rect><rect x="131.99" y="232.31" width=".89" height="3.02" transform="translate(366.27 101.38) rotate(90)"></rect><rect x="131.99" y="229.35" width=".89" height="3.02" transform="translate(363.3 98.42) rotate(90)"></rect><rect x="131.99" y="226.39" width=".89" height="3.02" transform="translate(360.34 95.46) rotate(90)"></rect><rect x="131.99" y="223.43" width=".89" height="3.02" transform="translate(357.38 92.5) rotate(90)"></rect><rect x="131.99" y="220.47" width=".89" height="3.02" transform="translate(354.42 89.54) rotate(90)"></rect><rect x="131.99" y="217.51" width=".89" height="3.02" transform="translate(351.46 86.58) rotate(90)"></rect><rect x="131.99" y="214.55" width=".89" height="3.02" transform="translate(348.5 83.62) rotate(90)"></rect><rect x="131.99" y="211.58" width=".89" height="3.02" transform="translate(345.54 80.66) rotate(90)"></rect><rect x="131.99" y="208.62" width=".89" height="3.02" transform="translate(342.57 77.69) rotate(90)"></rect><rect x="131.99" y="205.66" width=".89" height="3.02" transform="translate(339.61 74.73) rotate(90)"></rect><rect x="131.99" y="202.7" width=".89" height="3.02" transform="translate(336.65 71.77) rotate(90)"></rect><rect x="131.99" y="199.74" width=".89" height="3.02" transform="translate(333.69 68.81) rotate(90)"></rect><rect x="131.99" y="196.78" width=".89" height="3.02" transform="translate(330.73 65.85) rotate(90)"></rect><rect x="131.99" y="193.82" width=".89" height="3.02" transform="translate(327.77 62.89) rotate(90)"></rect><rect x="131.99" y="190.86" width=".89" height="3.02" transform="translate(324.81 59.93) rotate(90)"></rect><rect x="131.99" y="187.89" width=".89" height="3.02" transform="translate(321.85 56.96) rotate(90)"></rect><rect x="131.99" y="184.93" width=".89" height="3.02" transform="translate(318.88 54) rotate(90)"></rect><rect x="131.99" y="181.97" width=".89" height="3.02" transform="translate(315.92 51.04) rotate(90)"></rect><rect x="131.99" y="179.01" width=".89" height="3.02" transform="translate(312.96 48.08) rotate(90)"></rect><rect x="131.99" y="176.05" width=".89" height="3.02" transform="translate(310 45.12) rotate(90)"></rect><rect x="131.99" y="173.09" width=".89" height="3.02" transform="translate(307.04 42.16) rotate(90)"></rect><rect x="131.99" y="170.13" width=".89" height="3.02" transform="translate(304.08 39.2) rotate(90)"></rect><rect x="131.99" y="167.16" width=".89" height="3.02" transform="translate(301.12 36.23) rotate(90)"></rect><rect x="131.99" y="164.2" width=".89" height="3.02" transform="translate(298.15 33.27) rotate(90)"></rect><rect x="131.99" y="161.24" width=".89" height="3.02" transform="translate(295.19 30.31) rotate(90)"></rect><rect x="131.99" y="158.28" width=".89" height="3.02" transform="translate(292.23 27.35) rotate(90)"></rect></g></g><g><path d="M136.13,441.27h-7.38l-6.45-66.87v-36.35h20.29v36.28l-6.46,66.94Zm-6.02-1.5h4.65l6.32-65.51v-34.71h-17.3v34.78l6.32,65.44Z" style="fill:#B0BEC5;"></path><rect x="123.04" y="373.58" width="18.79" height="1.5" style="fill:#B0BEC5;"></rect><polygon points="132.44 373.62 122.32 339.01 123.76 338.59 132.44 368.27 141.12 338.59 142.56 339.01 132.44 373.62" style="fill:#B0BEC5;"></polygon><polygon points="126.93 407.56 125.46 407.28 132.44 371.33 139.38 407.28 137.91 407.56 132.44 379.22 126.93 407.56" style="fill:#B0BEC5;"></polygon><rect x="131.69" y="374.33" width="1.5" height="66.19" style="fill:#B0BEC5;"></rect></g><g><g><path d="M138.21,441.3h-2.6l5.44-67.03v-36.25h4.85v36.31l-7.7,66.97Zm4.41-101.72v34.75l-4.14,51,5.88-51.09v-34.66h-1.74Z" style="fill:#B0BEC5;"></path><rect x="141.84" y="373.55" width="3.29" height="1.56" style="fill:#B0BEC5;"></rect><polygon points="144.26 370.99 142.7 370.99 141.06 338.84 142.62 338.76 143.48 355.69 144.35 338.76 145.91 338.84 144.26 370.99" style="fill:#B0BEC5;"></polygon><rect x="106.98" y="406.64" width="66.5" height="1.56" transform="translate(-278.93 507.21) rotate(-84.4)" style="fill:#B0BEC5;"></rect></g><g style="opacity:.1;"><path d="M138.21,441.3h-2.6l5.44-67.03v-36.25h4.85v36.31l-7.7,66.97Zm4.41-101.72v34.75l-4.14,51,5.88-51.09v-34.66h-1.74Z"></path><rect x="141.84" y="373.55" width="3.29" height="1.56"></rect><polygon points="144.26 370.99 142.7 370.99 141.06 338.84 142.62 338.76 143.48 355.69 144.35 338.76 145.91 338.84 144.26 370.99"></polygon><rect x="106.98" y="406.64" width="66.5" height="1.56" transform="translate(-278.93 507.21) rotate(-84.4)"></rect></g></g><g><path d="M142.59,130.02h-20.29v-33.23l8-61.26h4.29l8,61.17v33.33Zm-18.79-1.5h17.29v-31.73l-7.82-59.76h-1.66l-7.82,59.86v31.64Z" style="fill:#B0BEC5;"></path><rect x="123.04" y="96.03" width="18.79" height="1.5" style="fill:#B0BEC5;"></rect><polygon points="141.12 129.5 132.44 102.34 123.76 129.5 122.33 129.04 132.44 97.41 142.55 129.04 141.12 129.5" style="fill:#B0BEC5;"></polygon><polygon points="132.44 100.03 126.26 66.66 127.74 66.39 132.44 91.81 137.16 66.47 138.63 66.75 132.44 100.03" style="fill:#B0BEC5;"></polygon><rect x="131.69" y="36.27" width="1.5" height="60.51" style="fill:#B0BEC5;"></rect></g><g><path d="M140.71,339.55h-16.54V156.28h16.54v183.27Zm-15.04-1.5h13.54V157.78h-13.54v180.27Z" style="fill:#B0BEC5;"></path><g><polygon points="139.76 339.11 124.22 329.23 139.76 319.35 140.16 319.98 125.62 329.23 140.16 338.48 139.76 339.11" style="fill:#B0BEC5;"></polygon><polygon points="139.76 319.98 124.22 310.1 139.76 300.21 140.16 300.85 125.62 310.1 140.16 319.35 139.76 319.98" style="fill:#B0BEC5;"></polygon><rect x="125.15" y="318.92" width="14.81" height="1.5" style="fill:#B0BEC5;"></rect><polygon points="139.76 300.85 124.22 290.96 139.76 281.08 140.16 281.71 125.62 290.96 140.16 300.21 139.76 300.85" style="fill:#B0BEC5;"></polygon><rect x="125.15" y="299.78" width="14.81" height="1.5" style="fill:#B0BEC5;"></rect><polygon points="139.76 281.71 124.22 271.83 139.76 261.95 140.16 262.58 125.62 271.83 140.16 281.08 139.76 281.71" style="fill:#B0BEC5;"></polygon><rect x="125.15" y="280.65" width="14.81" height="1.5" style="fill:#B0BEC5;"></rect><polygon points="139.76 262.58 124.22 252.7 139.76 242.81 140.16 243.45 125.62 252.7 140.16 261.95 139.76 262.58" style="fill:#B0BEC5;"></polygon><rect x="125.15" y="261.51" width="14.81" height="1.5" style="fill:#B0BEC5;"></rect><polygon points="139.76 243.45 124.22 233.56 139.76 223.68 140.16 224.31 125.62 233.56 140.16 242.81 139.76 243.45" style="fill:#B0BEC5;"></polygon><rect x="125.15" y="242.38" width="14.81" height="1.5" style="fill:#B0BEC5;"></rect><polygon points="139.76 224.31 124.22 214.43 139.76 204.55 140.16 205.18 125.62 214.43 140.16 223.68 139.76 224.31" style="fill:#B0BEC5;"></polygon><rect x="125.15" y="223.25" width="14.81" height="1.5" style="fill:#B0BEC5;"></rect><polygon points="139.76 205.18 124.22 195.3 139.76 185.41 140.16 186.05 125.62 195.3 140.16 204.55 139.76 205.18" style="fill:#B0BEC5;"></polygon><rect x="125.15" y="204.11" width="14.81" height="1.5" style="fill:#B0BEC5;"></rect><polygon points="139.76 186.05 124.22 176.16 139.76 166.28 140.16 166.91 125.62 176.16 140.16 185.41 139.76 186.05" style="fill:#B0BEC5;"></polygon><rect x="125.15" y="184.98" width="14.81" height="1.5" style="fill:#B0BEC5;"></rect><rect x="132.07" y="152.9" width=".75" height="17.83" transform="translate(-75.17 186.72) rotate(-57.54)" style="fill:#B0BEC5;"></rect></g><rect x="125.15" y="165.85" width="14.81" height="1.5" style="fill:#B0BEC5;"></rect></g><g><g><path d="M144.49,339.58h-5.31V156.25h5.31v183.33Zm-3.75-1.56h2.19V157.81h-2.19v180.21Z" style="fill:#B0BEC5;"></path><g><polygon points="140.32 338.94 139.6 338.66 143.29 329.23 139.6 319.81 140.32 319.52 144.13 329.23 140.32 338.94" style="fill:#B0BEC5;"></polygon><polygon points="140.32 319.81 139.6 319.52 143.29 310.1 139.6 300.67 140.32 300.39 144.13 310.1 140.32 319.81" style="fill:#B0BEC5;"></polygon><rect x="139.96" y="318.88" width="3.69" height="1.56" style="fill:#B0BEC5;"></rect><polygon points="140.32 300.67 139.6 300.39 143.29 290.97 139.6 281.54 140.32 281.26 144.13 290.97 140.32 300.67" style="fill:#B0BEC5;"></polygon><rect x="139.96" y="299.75" width="3.69" height="1.56" style="fill:#B0BEC5;"></rect><polygon points="140.32 281.54 139.6 281.26 143.29 271.83 139.6 262.41 140.32 262.12 144.13 271.83 140.32 281.54" style="fill:#B0BEC5;"></polygon><rect x="139.96" y="280.62" width="3.69" height="1.56" style="fill:#B0BEC5;"></rect><polygon points="140.32 262.41 139.6 262.12 143.29 252.7 139.6 243.27 140.32 242.99 144.13 252.7 140.32 262.41" style="fill:#B0BEC5;"></polygon><rect x="139.96" y="261.48" width="3.69" height="1.56" style="fill:#B0BEC5;"></rect><polygon points="140.32 243.27 139.6 242.99 143.29 233.56 139.6 224.14 140.32 223.86 144.13 233.56 140.32 243.27" style="fill:#B0BEC5;"></polygon><rect x="139.96" y="242.35" width="3.69" height="1.56" style="fill:#B0BEC5;"></rect><polygon points="140.32 224.14 139.6 223.86 143.29 214.43 139.6 205.01 140.32 204.72 144.13 214.43 140.32 224.14" style="fill:#B0BEC5;"></polygon><rect x="139.96" y="223.22" width="3.69" height="1.56" style="fill:#B0BEC5;"></rect><polygon points="140.32 205.01 139.6 204.72 143.29 195.3 139.6 185.87 140.32 185.59 144.13 195.3 140.32 205.01" style="fill:#B0BEC5;"></polygon><rect x="139.96" y="204.08" width="3.69" height="1.56" style="fill:#B0BEC5;"></rect><polygon points="140.32 185.87 139.6 185.59 143.29 176.16 139.6 166.74 140.32 166.46 144.13 176.16 140.32 185.87" style="fill:#B0BEC5;"></polygon><rect x="139.96" y="184.95" width="3.69" height="1.56" style="fill:#B0BEC5;"></rect><rect x="136.7" y="161.42" width="10.28" height=".78" transform="translate(-60.56 234.87) rotate(-68.61)" style="fill:#B0BEC5;"></rect></g><rect x="139.96" y="165.82" width="3.69" height="1.56" style="fill:#B0BEC5;"></rect></g><g style="opacity:.1;"><path d="M144.49,339.58h-5.31V156.25h5.31v183.33Zm-3.75-1.56h2.19V157.81h-2.19v180.21Z"></path><g><polygon points="140.32 338.94 139.6 338.66 143.29 329.23 139.6 319.81 140.32 319.52 144.13 329.23 140.32 338.94"></polygon><polygon points="140.32 319.81 139.6 319.52 143.29 310.1 139.6 300.67 140.32 300.39 144.13 310.1 140.32 319.81"></polygon><rect x="139.96" y="318.88" width="3.69" height="1.56"></rect><polygon points="140.32 300.67 139.6 300.39 143.29 290.97 139.6 281.54 140.32 281.26 144.13 290.97 140.32 300.67"></polygon><rect x="139.96" y="299.75" width="3.69" height="1.56"></rect><polygon points="140.32 281.54 139.6 281.26 143.29 271.83 139.6 262.41 140.32 262.12 144.13 271.83 140.32 281.54"></polygon><rect x="139.96" y="280.62" width="3.69" height="1.56"></rect><polygon points="140.32 262.41 139.6 262.12 143.29 252.7 139.6 243.27 140.32 242.99 144.13 252.7 140.32 262.41"></polygon><rect x="139.96" y="261.48" width="3.69" height="1.56"></rect><polygon points="140.32 243.27 139.6 242.99 143.29 233.56 139.6 224.14 140.32 223.86 144.13 233.56 140.32 243.27"></polygon><rect x="139.96" y="242.35" width="3.69" height="1.56"></rect><polygon points="140.32 224.14 139.6 223.86 143.29 214.43 139.6 205.01 140.32 204.72 144.13 214.43 140.32 224.14"></polygon><rect x="139.96" y="223.22" width="3.69" height="1.56"></rect><polygon points="140.32 205.01 139.6 204.72 143.29 195.3 139.6 185.87 140.32 185.59 144.13 195.3 140.32 205.01"></polygon><rect x="139.96" y="204.08" width="3.69" height="1.56"></rect><polygon points="140.32 185.87 139.6 185.59 143.29 176.16 139.6 166.74 140.32 166.46 144.13 176.16 140.32 185.87"></polygon><rect x="139.96" y="184.95" width="3.69" height="1.56"></rect><rect x="136.7" y="161.42" width="10.28" height=".78" transform="translate(-60.56 234.87) rotate(-68.61)"></rect></g><rect x="139.96" y="165.82" width="3.69" height="1.56"></rect></g></g><g><g><path d="M440.12,130.02H141.26v-14.02H430.75l9.37,14.02Zm-297.37-1.5H437.33l-7.38-11.02H142.76v11.02Z" style="fill:#B0BEC5;"></path><g><polygon points="228.25 129.88 218.39 116.97 218.98 116.51 228.25 128.65 237.52 116.51 238.12 116.97 228.25 129.88" style="fill:#B0BEC5;"></polygon><polygon points="209.12 129.88 199.26 116.97 199.85 116.51 209.12 128.65 218.39 116.51 218.98 116.97 209.12 129.88" style="fill:#B0BEC5;"></polygon><rect x="217.94" y="116.74" width="1.5" height="12.33" style="fill:#B0BEC5;"></rect><polygon points="247.39 129.88 237.52 116.97 238.12 116.51 247.39 128.65 256.66 116.51 257.25 116.97 247.39 129.88" style="fill:#B0BEC5;"></polygon><rect x="237.07" y="116.74" width="1.5" height="12.33" style="fill:#B0BEC5;"></rect><polygon points="266.52 129.88 256.66 116.97 257.25 116.51 266.52 128.65 275.79 116.51 276.38 116.97 266.52 129.88" style="fill:#B0BEC5;"></polygon><rect x="256.2" y="116.74" width="1.5" height="12.33" style="fill:#B0BEC5;"></rect><polygon points="285.65 129.88 275.79 116.97 276.38 116.51 285.65 128.65 294.92 116.51 295.52 116.97 285.65 129.88" style="fill:#B0BEC5;"></polygon><rect x="275.34" y="116.74" width="1.5" height="12.33" style="fill:#B0BEC5;"></rect><polygon points="304.79 129.88 294.92 116.97 295.52 116.51 304.79 128.65 314.06 116.51 314.65 116.97 304.79 129.88" style="fill:#B0BEC5;"></polygon><rect x="294.47" y="116.74" width="1.5" height="12.33" style="fill:#B0BEC5;"></rect><polygon points="323.92 129.88 314.06 116.97 314.65 116.51 323.92 128.65 333.19 116.51 333.79 116.97 323.92 129.88" style="fill:#B0BEC5;"></polygon><rect x="313.6" y="116.74" width="1.5" height="12.33" style="fill:#B0BEC5;"></rect><polygon points="343.05 129.88 333.19 116.97 333.79 116.51 343.05 128.65 352.32 116.51 352.92 116.97 343.05 129.88" style="fill:#B0BEC5;"></polygon><rect x="332.74" y="116.74" width="1.5" height="12.33" style="fill:#B0BEC5;"></rect><polygon points="362.19 129.88 352.32 116.97 352.92 116.51 362.19 128.65 371.46 116.51 372.05 116.97 362.19 129.88" style="fill:#B0BEC5;"></polygon><rect x="351.87" y="116.74" width="1.5" height="12.33" style="fill:#B0BEC5;"></rect><polygon points="381.32 129.88 371.46 116.97 372.05 116.51 381.32 128.65 390.59 116.51 391.19 116.97 381.32 129.88" style="fill:#B0BEC5;"></polygon><rect x="371" y="116.74" width="1.5" height="12.33" style="fill:#B0BEC5;"></rect><polygon points="400.45 129.88 390.59 116.97 391.19 116.51 400.45 128.65 409.72 116.51 410.32 116.97 400.45 129.88" style="fill:#B0BEC5;"></polygon><rect x="390.14" y="116.74" width="1.5" height="12.33" style="fill:#B0BEC5;"></rect><polygon points="419.59 129.88 409.72 116.97 410.32 116.51 419.59 128.65 428.86 116.51 429.45 116.97 419.59 129.88" style="fill:#B0BEC5;"></polygon><rect x="409.27" y="116.74" width="1.5" height="12.33" style="fill:#B0BEC5;"></rect><rect x="433.56" y="115.12" width=".75" height="15.76" transform="translate(14.43 288.68) rotate(-37.38)" style="fill:#B0BEC5;"></rect><rect x="428.4" y="116.74" width="1.5" height="12.33" style="fill:#B0BEC5;"></rect><polygon points="189.99 129.88 180.12 116.97 180.72 116.51 189.99 128.65 199.26 116.51 199.85 116.97 189.99 129.88" style="fill:#B0BEC5;"></polygon><rect x="198.8" y="116.74" width="1.5" height="12.33" style="fill:#B0BEC5;"></rect><polygon points="170.85 129.88 160.99 116.97 161.58 116.51 170.85 128.65 180.12 116.51 180.72 116.97 170.85 129.88" style="fill:#B0BEC5;"></polygon><rect x="179.67" y="116.74" width="1.5" height="12.33" style="fill:#B0BEC5;"></rect><polygon points="151.72 129.88 141.86 116.97 142.45 116.51 151.72 128.65 160.99 116.51 161.58 116.97 151.72 129.88" style="fill:#B0BEC5;"></polygon><rect x="160.54" y="116.74" width="1.5" height="12.33" style="fill:#B0BEC5;"></rect><rect x="141.96" y="116.47" width=".25" height=".75" transform="translate(-36.66 160.31) rotate(-53.1)" style="fill:#B0BEC5;"></rect><rect x="141.4" y="116.74" width="1.5" height="12.33" style="fill:#B0BEC5;"></rect></g></g><g><g><path d="M142.01,128.49v1.56H433.26l-3.09,2.15h-.01l-.22,.16-.2,.14H142.01v1.56H430.23l6.88-4.8,1.06-.74,.05-.04H142.01Zm9.72,1.2l-.87,.36h1.73l-.87-.36Zm19.13,0l-.87,.36h1.73l-.87-.36Zm19.14,0l-.87,.36h1.73l-.87-.36Zm19.13,0l-.87,.36h1.73l-.87-.36Zm19.14,0l-.87,.36h1.73l-.87-.36Zm19.13,0l-.87,.36h1.73l-.87-.36Zm19.14,0l-.87,.36h1.73l-.87-.36Zm19.14,0l-.87,.36h1.73l-.87-.36Zm19.13,0l-.87,.36h1.73l-.87-.36Zm19.14,0l-.87,.36h1.73l-.87-.36Zm19.13,0l-.87,.36h1.73l-.87-.36Zm19.14,0l-.87,.36h1.73l-.87-.36Zm19.13,0l-.87,.36h1.73l-.87-.36Zm19.14,0l-.87,.36h1.73l-.87-.36Zm19.13,0l-.87,.36h1.73l-.87-.36Z" style="fill:#B0BEC5;"></path><g><polygon points="237.67 133.65 228.25 129.69 218.84 133.65 218.54 132.93 228.25 128.84 237.97 132.93 237.67 133.65" style="fill:#B0BEC5;"></polygon><polygon points="218.54 133.65 209.12 129.69 199.71 133.65 199.4 132.93 209.12 128.84 218.84 132.93 218.54 133.65" style="fill:#B0BEC5;"></polygon><rect x="217.91" y="129.33" width="1.56" height="3.96" style="fill:#B0BEC5;"></rect><polygon points="256.8 133.65 247.39 129.69 237.97 133.65 237.67 132.93 247.39 128.84 257.1 132.93 256.8 133.65" style="fill:#B0BEC5;"></polygon><rect x="237.04" y="129.33" width="1.56" height="3.96" style="fill:#B0BEC5;"></rect><polygon points="257.1 133.65 256.8 132.93 266.52 128.84 276.24 132.93 275.94 133.65 266.52 129.69 257.1 133.65" style="fill:#B0BEC5;"></polygon><rect x="256.17" y="129.33" width="1.56" height="3.96" style="fill:#B0BEC5;"></rect><polygon points="295.07 133.65 285.65 129.69 276.24 133.65 275.94 132.93 285.65 128.84 295.37 132.93 295.07 133.65" style="fill:#B0BEC5;"></polygon><rect x="275.31" y="129.33" width="1.56" height="3.96" style="fill:#B0BEC5;"></rect><polygon points="314.2 133.65 304.79 129.69 295.37 133.65 295.07 132.93 304.79 128.84 314.51 132.93 314.2 133.65" style="fill:#B0BEC5;"></polygon><rect x="294.44" y="129.33" width="1.56" height="3.96" style="fill:#B0BEC5;"></rect><polygon points="333.34 133.65 323.92 129.69 314.51 133.65 314.2 132.93 323.92 128.84 333.64 132.93 333.34 133.65" style="fill:#B0BEC5;"></polygon><rect x="313.57" y="129.33" width="1.56" height="3.96" style="fill:#B0BEC5;"></rect><polygon points="352.47 133.65 343.05 129.69 333.64 133.65 333.34 132.93 343.05 128.84 352.77 132.93 352.47 133.65" style="fill:#B0BEC5;"></polygon><rect x="332.71" y="129.33" width="1.56" height="3.96" style="fill:#B0BEC5;"></rect><polygon points="371.6 133.65 362.19 129.69 352.77 133.65 352.47 132.93 362.19 128.84 371.91 132.93 371.6 133.65" style="fill:#B0BEC5;"></polygon><rect x="351.84" y="129.33" width="1.56" height="3.96" style="fill:#B0BEC5;"></rect><polygon points="390.74 133.65 381.32 129.69 371.91 133.65 371.6 132.93 381.32 128.84 391.04 132.93 390.74 133.65" style="fill:#B0BEC5;"></polygon><rect x="370.97" y="129.33" width="1.56" height="3.96" style="fill:#B0BEC5;"></rect><polygon points="409.87 133.65 400.45 129.69 391.04 133.65 390.74 132.93 400.45 128.84 410.17 132.93 409.87 133.65" style="fill:#B0BEC5;"></polygon><rect x="390.11" y="129.33" width="1.56" height="3.96" style="fill:#B0BEC5;"></rect><polygon points="429 133.65 419.59 129.69 410.17 133.65 409.87 132.93 419.59 128.84 429.31 132.93 429 133.65" style="fill:#B0BEC5;"></polygon><rect x="409.24" y="129.33" width="1.56" height="3.96" style="fill:#B0BEC5;"></rect><rect x="428.59" y="130.89" width="7.71" height=".78" transform="translate(-5.04 244.65) rotate(-31.41)" style="fill:#B0BEC5;"></rect><rect x="428.37" y="129.33" width="1.56" height="3.96" style="fill:#B0BEC5;"></rect><polygon points="199.4 133.65 189.99 129.69 180.57 133.65 180.27 132.93 189.99 128.84 199.71 132.93 199.4 133.65" style="fill:#B0BEC5;"></polygon><rect x="198.77" y="129.33" width="1.56" height="3.96" style="fill:#B0BEC5;"></rect><polygon points="180.27 133.65 170.85 129.69 161.44 133.65 161.14 132.93 170.85 128.84 180.57 132.93 180.27 133.65" style="fill:#B0BEC5;"></polygon><rect x="179.64" y="129.33" width="1.56" height="3.96" style="fill:#B0BEC5;"></rect><polygon points="161.14 133.65 151.72 129.69 142.3 133.65 142 132.93 151.72 128.84 161.44 132.93 161.14 133.65" style="fill:#B0BEC5;"></polygon><rect x="160.51" y="129.33" width="1.56" height="3.96" style="fill:#B0BEC5;"></rect><polygon points="142.31 132.93 142.16 133.29 142.01 133.65 142.01 132.8 142.16 132.87 142.31 132.93" style="fill:#B0BEC5;"></polygon><rect x="142.01" y="129.33" width=".93" height="3.97" style="fill:#B0BEC5;"></rect></g></g><g style="opacity:.1;"><path d="M142.01,128.49v1.56H433.26l-3.09,2.15h-.01l-.22,.16-.2,.14H142.01v1.56H430.23l6.88-4.8,1.06-.74,.05-.04H142.01Zm9.72,1.2l-.87,.36h1.73l-.87-.36Zm19.13,0l-.87,.36h1.73l-.87-.36Zm19.14,0l-.87,.36h1.73l-.87-.36Zm19.13,0l-.87,.36h1.73l-.87-.36Zm19.14,0l-.87,.36h1.73l-.87-.36Zm19.13,0l-.87,.36h1.73l-.87-.36Zm19.14,0l-.87,.36h1.73l-.87-.36Zm19.14,0l-.87,.36h1.73l-.87-.36Zm19.13,0l-.87,.36h1.73l-.87-.36Zm19.14,0l-.87,.36h1.73l-.87-.36Zm19.13,0l-.87,.36h1.73l-.87-.36Zm19.14,0l-.87,.36h1.73l-.87-.36Zm19.13,0l-.87,.36h1.73l-.87-.36Zm19.14,0l-.87,.36h1.73l-.87-.36Zm19.13,0l-.87,.36h1.73l-.87-.36Z"></path><g><polygon points="237.67 133.65 228.25 129.69 218.84 133.65 218.54 132.93 228.25 128.84 237.97 132.93 237.67 133.65"></polygon><polygon points="218.54 133.65 209.12 129.69 199.71 133.65 199.4 132.93 209.12 128.84 218.84 132.93 218.54 133.65"></polygon><rect x="217.91" y="129.33" width="1.56" height="3.96"></rect><polygon points="256.8 133.65 247.39 129.69 237.97 133.65 237.67 132.93 247.39 128.84 257.1 132.93 256.8 133.65"></polygon><rect x="237.04" y="129.33" width="1.56" height="3.96"></rect><polygon points="257.1 133.65 256.8 132.93 266.52 128.84 276.24 132.93 275.94 133.65 266.52 129.69 257.1 133.65"></polygon><rect x="256.17" y="129.33" width="1.56" height="3.96"></rect><polygon points="295.07 133.65 285.65 129.69 276.24 133.65 275.94 132.93 285.65 128.84 295.37 132.93 295.07 133.65"></polygon><rect x="275.31" y="129.33" width="1.56" height="3.96"></rect><polygon points="314.2 133.65 304.79 129.69 295.37 133.65 295.07 132.93 304.79 128.84 314.51 132.93 314.2 133.65"></polygon><rect x="294.44" y="129.33" width="1.56" height="3.96"></rect><polygon points="333.34 133.65 323.92 129.69 314.51 133.65 314.2 132.93 323.92 128.84 333.64 132.93 333.34 133.65"></polygon><rect x="313.57" y="129.33" width="1.56" height="3.96"></rect><polygon points="352.47 133.65 343.05 129.69 333.64 133.65 333.34 132.93 343.05 128.84 352.77 132.93 352.47 133.65"></polygon><rect x="332.71" y="129.33" width="1.56" height="3.96"></rect><polygon points="371.6 133.65 362.19 129.69 352.77 133.65 352.47 132.93 362.19 128.84 371.91 132.93 371.6 133.65"></polygon><rect x="351.84" y="129.33" width="1.56" height="3.96"></rect><polygon points="390.74 133.65 381.32 129.69 371.91 133.65 371.6 132.93 381.32 128.84 391.04 132.93 390.74 133.65"></polygon><rect x="370.97" y="129.33" width="1.56" height="3.96"></rect><polygon points="409.87 133.65 400.45 129.69 391.04 133.65 390.74 132.93 400.45 128.84 410.17 132.93 409.87 133.65"></polygon><rect x="390.11" y="129.33" width="1.56" height="3.96"></rect><polygon points="429 133.65 419.59 129.69 410.17 133.65 409.87 132.93 419.59 128.84 429.31 132.93 429 133.65"></polygon><rect x="409.24" y="129.33" width="1.56" height="3.96"></rect><rect x="428.59" y="130.89" width="7.71" height=".78" transform="translate(-5.04 244.65) rotate(-31.41)"></rect><rect x="428.37" y="129.33" width="1.56" height="3.96"></rect><polygon points="199.4 133.65 189.99 129.69 180.57 133.65 180.27 132.93 189.99 128.84 199.71 132.93 199.4 133.65"></polygon><rect x="198.77" y="129.33" width="1.56" height="3.96"></rect><polygon points="180.27 133.65 170.85 129.69 161.44 133.65 161.14 132.93 170.85 128.84 180.57 132.93 180.27 133.65"></polygon><rect x="179.64" y="129.33" width="1.56" height="3.96"></rect><polygon points="161.14 133.65 151.72 129.69 142.3 133.65 142 132.93 151.72 128.84 161.44 132.93 161.14 133.65"></polygon><rect x="160.51" y="129.33" width="1.56" height="3.96"></rect><polygon points="142.31 132.93 142.16 133.29 142.01 133.65 142.01 132.8 142.16 132.87 142.31 132.93"></polygon><rect x="142.01" y="129.33" width=".93" height="3.97"></rect></g></g></g></g><g><polygon points="144.81 157.03 119.14 157.03 119.14 128.73 144.81 128.73 148.76 142.88 144.81 157.03" style="fill:#B0BEC5;"></polygon><polygon points="148.76 142.88 144.81 157.03 138.27 157.03 142.21 142.88 138.27 128.74 144.81 128.74 148.76 142.88" style="opacity:.1;"></polygon><g><polygon points="144.02 130.29 147.37 142.3 143.32 142.3 139.96 130.29 144.02 130.29" style="fill:#37474f;"></polygon><polygon points="137.91 130.29 141.26 142.3 129.16 142.3 129.16 130.29 137.91 130.29" style="fill:#37474f;"></polygon><polygon points="143.32 143.49 139.96 155.51 144.02 155.51 147.37 143.49 143.32 143.49" style="fill:#37474f;"></polygon><g><polygon points="133.96 130.29 129.16 135.08 129.16 132.19 131.06 130.29 133.96 130.29" style="fill:#455a64;"></polygon><polygon points="145.1 151.65 144.02 155.52 141.23 155.52 145.1 151.65" style="fill:#455a64;"></polygon><polygon points="143.32 143.49 144.6 143.49 142.82 145.27 143.32 143.49" style="fill:#455a64;"></polygon><polygon points="147.03 141.06 145.8 142.3 143.32 142.3 143.23 141.96 146.4 138.79 147.03 141.06" style="fill:#455a64;"></polygon><polygon points="138.53 132.47 138.73 133.19 129.63 142.3 129.16 142.3 129.16 141.83 138.53 132.47" style="fill:#455a64;"></polygon><polygon points="141.64 130.29 140.32 131.59 140.12 130.86 140.71 130.29 141.64 130.29" style="fill:#455a64;"></polygon><polygon points="141.05 141.5 141.24 142.24 141.18 142.3 140.26 142.3 141.05 141.5" style="fill:#455a64;"></polygon><polygon points="146.02 137.46 142.86 140.62 142.65 139.9 145.82 136.73 146.02 137.46" style="fill:#455a64;"></polygon><polygon points="135.17 130.29 129.16 136.29 129.16 136.13 135.01 130.29 135.17 130.29" style="fill:#455a64;"></polygon><polygon points="140.83 140.76 140.87 140.89 139.46 142.3 139.31 142.3 140.83 140.76" style="fill:#455a64;"></polygon><polygon points="145.65 136.12 142.48 139.29 142.44 139.15 145.62 135.99 145.65 136.12" style="fill:#455a64;"></polygon><polygon points="147.37 143.49 147.32 143.66 141.7 149.28 141.77 149.06 147.32 143.49 147.37 143.49" style="fill:#455a64;"></polygon></g></g></g><g><g><rect x="81.8" y="128.73" width="37.34" height="5.56" style="fill:#B0BEC5;"></rect><rect x="81.8" y="128.73" width="37.34" height="5.56" style="opacity:.1;"></rect></g><g><path d="M94.41,128.73h-.5v-3.93c0-.89-.61-1.61-1.36-1.61h-8.75c-.75,0-1.36,.72-1.36,1.61v3.93h-.5v-3.93c0-1.16,.83-2.11,1.86-2.11h8.75c1.02,0,1.86,.94,1.86,2.11v3.93Z" style="fill:#B0BEC5;"></path><rect x="82.19" y="125.14" width="11.96" height=".5" style="fill:#B0BEC5;"></rect><rect x="82.19" y="127.07" width="11.96" height=".5" style="fill:#B0BEC5;"></rect></g><g><path d="M106.7,128.73h-.5v-3.93c0-.89-.61-1.61-1.36-1.61h-8.75c-.75,0-1.36,.72-1.36,1.61v3.93h-.5v-3.93c0-1.16,.83-2.11,1.86-2.11h8.75c1.02,0,1.86,.94,1.86,2.11v3.93Z" style="fill:#B0BEC5;"></path><rect x="94.49" y="125.14" width="11.96" height=".5" style="fill:#B0BEC5;"></rect><rect x="94.49" y="127.07" width="11.96" height=".5" style="fill:#B0BEC5;"></rect></g><g><path d="M119,128.73h-.5v-3.93c0-.89-.61-1.61-1.36-1.61h-8.75c-.75,0-1.36,.72-1.36,1.61v3.93h-.5v-3.93c0-1.16,.83-2.11,1.86-2.11h8.75c1.02,0,1.86,.94,1.86,2.11v3.93Z" style="fill:#B0BEC5;"></path><rect x="106.79" y="125.14" width="11.96" height=".5" style="fill:#B0BEC5;"></rect><rect x="106.79" y="127.07" width="11.96" height=".5" style="fill:#B0BEC5;"></rect></g></g><g><g><rect x="283.85" y="129.07" width="4.37" height="11.57" style="fill:#B0BEC5;"></rect><rect x="297.43" y="129.07" width="4.37" height="11.57" style="fill:#B0BEC5;"></rect><rect x="283.85" y="136.12" width="17.96" height="4.52" style="fill:#B0BEC5;"></rect></g><g style="opacity:.2;"><rect x="283.85" y="129.07" width="4.37" height="11.57"></rect><rect x="297.43" y="129.07" width="4.37" height="11.57"></rect><rect x="283.85" y="136.12" width="17.96" height="4.52"></rect></g><rect x="285.83" y="140.64" width="13.98" height="1.72" style="fill:#B0BEC5;"></rect><g><rect x="287.94" y="142.34" width=".5" height="78.79" style="fill:#263238;"></rect><rect x="297.16" y="142.34" width=".5" height="78.79" style="fill:#263238;"></rect><polygon points="295.13 223.76 295.13 224.33 293.24 225.52 291.91 225.52 290.03 224.33 290.03 223.76 295.13 223.76" style="fill:#B0BEC5;"></polygon><g><polygon points="298.42 222.16 296.64 223.76 288.51 223.76 286.74 222.16 286.74 219.74 298.42 219.74 298.42 222.16" style="fill:#B0BEC5;"></polygon><polygon points="296.64 223.76 288.51 223.76 286.74 222.16 298.42 222.16 296.64 223.76" style="opacity:.1;"></polygon></g><path d="M293.08,225.52l-.08,1.98-.42-.42c3.54,.34,2.4,6.04-1.04,4.62-.81-.32-1.24-1.21-1.17-2.04-.08,1.76,2.2,2.63,3.35,1.4,1.05-1.23,.25-3.49-1.54-3.12l-.02-.44-.08-1.98h1Z" style="fill:#B0BEC5;"></path></g><g><rect x="243.23" y="283.5" width="98.71" height="9.62" style="fill:#B0BEC5;"></rect><g><polygon points="334.53 285.45 292.58 232.18 250.63 285.28 250.24 284.97 292.58 231.38 334.92 285.14 334.53 285.45" style="fill:#263238;"></polygon><g><rect x="243.23" y="283.5" width="98.71" height="9.62" style="fill:#B0BEC5;"></rect><rect x="243.23" y="283.5" width="98.71" height="9.62" style="opacity:.6;"></rect></g></g><g><rect x="271.69" y="241.71" width="41.79" height="41.79" style="fill:#B0BEC5;"></rect><rect x="273.77" y="243.79" width="37.62" height="37.62" style="opacity:.1;"></rect><g><g><rect x="276.61" y="243.79" width="1.21" height="37.62" style="fill:#B0BEC5;"></rect><rect x="277.43" y="243.79" width=".39" height="37.62" style="opacity:.2;"></rect></g><g><rect x="281.73" y="243.79" width="1.21" height="37.62" style="fill:#B0BEC5;"></rect><rect x="282.55" y="243.79" width=".39" height="37.62" style="opacity:.2;"></rect></g><g><rect x="286.85" y="243.79" width="1.21" height="37.62" style="fill:#B0BEC5;"></rect><rect x="287.68" y="243.79" width=".39" height="37.62" style="opacity:.2;"></rect></g><g><rect x="291.98" y="243.79" width="1.21" height="37.62" style="fill:#B0BEC5;"></rect><rect x="292.8" y="243.79" width=".39" height="37.62" style="opacity:.2;"></rect></g><g><rect x="297.1" y="243.79" width="1.21" height="37.62" style="fill:#B0BEC5;"></rect><rect x="297.92" y="243.79" width=".39" height="37.62" style="opacity:.2;"></rect></g><g><rect x="302.22" y="243.79" width="1.21" height="37.62" style="fill:#B0BEC5;"></rect><rect x="303.05" y="243.79" width=".39" height="37.62" style="opacity:.2;"></rect></g><g><rect x="307.35" y="243.79" width="1.21" height="37.62" style="fill:#B0BEC5;"></rect><rect x="308.17" y="243.79" width=".39" height="37.62" style="opacity:.2;"></rect></g></g></g></g></g><g><g><path d="M136.3,33.2c0,2.13-1.73,3.85-3.85,3.85s-3.85-1.73-3.85-3.85,1.73-3.85,3.85-3.85,3.85,1.73,3.85,3.85Z" style="fill:#263238;"></path><circle cx="132.44" cy="33.2" r="1.54" style="fill:#455a64;"></circle></g><g><path d="M83.84,133.29c0,2.13-1.73,3.85-3.85,3.85s-3.85-1.73-3.85-3.85,1.73-3.85,3.85-3.85,3.85,1.73,3.85,3.85Z" style="fill:#263238;"></path><circle cx="79.98" cy="133.29" r="1.54" style="fill:#455a64;"></circle></g><g><rect x="372.61" y="112.79" width="4.07" height="5.58" style="fill:#B0BEC5;"></rect><g><path d="M377.34,118.05c0,1.49-1.21,2.69-2.69,2.69s-2.69-1.21-2.69-2.69,1.21-2.69,2.69-2.69,2.69,1.21,2.69,2.69Z" style="fill:#263238;"></path><circle cx="374.64" cy="118.05" r="1.07" style="fill:#455a64;"></circle></g></g><g><rect x="77.95" y="261.98" width="4.07" height="5.58" style="fill:#B0BEC5;"></rect><g><path d="M82.68,267.23c0,1.49-1.21,2.69-2.69,2.69s-2.69-1.21-2.69-2.69,1.21-2.69,2.69-2.69,2.69,1.21,2.69,2.69Z" style="fill:#263238;"></path><circle cx="79.98" cy="267.23" r="1.07" style="fill:#455a64;"></circle></g></g><g><path d="M82.68,384.85c0,1.49-1.21,2.7-2.69,2.7s-2.69-1.21-2.69-2.7,1.21-2.69,2.69-2.69,2.69,1.21,2.69,2.69Z" style="fill:#263238;"></path><circle cx="79.98" cy="384.85" r="1.07" style="fill:#455a64;"></circle></g></g></g><g><path d="M131.85,436h1.17c2.48,0,4.49,2.01,4.49,4.49v5.66h-10.15v-5.66c0-2.48,2.01-4.49,4.49-4.49Z" style="fill:#B0BEC5;"></path><circle cx="132.44" cy="440.52" r="1.28" style="fill:#263238;"></circle></g><g><g><rect x="61.28" y="419.17" width="32.23" height="4.32" style="fill:#455a64;"></rect><rect x="93.5" y="419.17" width="5.19" height="4.32" transform="translate(192.19 842.67) rotate(180)" style="fill:#37474f;"></rect></g><g><rect x="61.28" y="414.86" width="32.23" height="4.32" style="fill:#455a64;"></rect><rect x="93.5" y="414.86" width="5.19" height="4.32" transform="translate(192.19 834.03) rotate(180)" style="fill:#37474f;"></rect><path d="M61.28,419.17c12.47-.15,24.94-.16,37.41,0-12.47,.16-24.94,.15-37.41,0h0Z" style="fill:#263238;"></path></g><g><rect x="61.28" y="410.54" width="32.23" height="4.32" style="fill:#455a64;"></rect><rect x="93.5" y="410.54" width="5.19" height="4.32" transform="translate(192.19 825.39) rotate(180)" style="fill:#37474f;"></rect><path d="M61.28,414.86c12.47-.15,24.94-.16,37.41,0-12.47,.16-24.94,.15-37.41,0h0Z" style="fill:#263238;"></path></g><g><rect x="61.28" y="406.22" width="32.23" height="4.32" style="fill:#455a64;"></rect><rect x="93.5" y="406.22" width="5.19" height="4.32" transform="translate(192.19 816.76) rotate(180)" style="fill:#37474f;"></rect><path d="M61.28,410.54c12.47-.15,24.94-.16,37.41,0-12.47,.16-24.94,.15-37.41,0h0Z" style="fill:#263238;"></path></g><g><rect x="61.28" y="401.9" width="32.23" height="4.32" style="fill:#455a64;"></rect><rect x="93.5" y="401.9" width="5.19" height="4.32" transform="translate(192.19 808.12) rotate(180)" style="fill:#37474f;"></rect><path d="M61.28,406.22c12.47-.15,24.94-.16,37.41,0-12.47,.16-24.94,.15-37.41,0h0Z" style="fill:#263238;"></path></g><g><rect x="61.28" y="397.58" width="32.23" height="4.32" style="fill:#455a64;"></rect><rect x="93.5" y="397.58" width="5.19" height="4.32" transform="translate(192.19 799.49) rotate(180)" style="fill:#37474f;"></rect><path d="M61.28,401.9c12.47-.15,24.94-.16,37.41,0-12.47,.16-24.94,.15-37.41,0h0Z" style="fill:#263238;"></path></g></g><rect x="79.28" y="387.51" width="1.41" height="10.08" style="fill:#B0BEC5;"></rect></g></g><g id="freepik--Ground--inject-226"><g><g><g><path d="M223.85,464.05h61.68s-27.85-31.29-61.68,0Z" style="fill:#B0BEC5;"></path><path d="M223.85,464.05h61.68s-27.85-31.29-61.68,0Z" style="opacity:.3;"></path></g><g><path d="M260.52,459.58c0-.34-.28-.62-.62-.62s-.62,.28-.62,.62,.28,.62,.62,.62,.62-.28,.62-.62Z" style="opacity:.1;"></path><path d="M246.8,454.57c0-.34-.28-.62-.62-.62s-.62,.28-.62,.62,.28,.62,.62,.62,.62-.28,.62-.62Z" style="opacity:.1;"></path><path d="M248.71,458.51c0-.34-.28-.62-.62-.62s-.62,.28-.62,.62,.28,.62,.62,.62,.62-.28,.62-.62Z" style="opacity:.1;"></path><circle cx="235.47" cy="457.47" r=".62" style="opacity:.1;"></circle><path d="M272.28,462.04c0-.34-.28-.62-.62-.62s-.62,.28-.62,.62,.28,.62,.62,.62,.62-.28,.62-.62Z" style="opacity:.1;"></path><path d="M249.33,462.66c0-.34-.28-.62-.62-.62s-.62,.28-.62,.62,.28,.62,.62,.62,.62-.28,.62-.62Z" style="opacity:.1;"></path><path d="M263.73,461.19c0-.25-.2-.44-.44-.44s-.44,.2-.44,.44,.2,.44,.44,.44,.44-.2,.44-.44Z" style="opacity:.1;"></path><path d="M251.63,457.03c0-.25-.2-.44-.44-.44s-.44,.2-.44,.44,.2,.44,.44,.44,.44-.2,.44-.44Z" style="opacity:.1;"></path><path d="M266.89,455.88c0-.25-.2-.44-.44-.44s-.44,.2-.44,.44,.2,.44,.44,.44,.44-.2,.44-.44Z" style="opacity:.1;"></path><path d="M278.35,460.2c0-.25-.2-.44-.44-.44s-.44,.2-.44,.44,.2,.44,.44,.44,.44-.2,.44-.44Z" style="opacity:.1;"></path></g></g><g><g><path d="M207.6,464.05h42.6s-19.24-21.61-42.6,0Z" style="fill:#B0BEC5;"></path><path d="M207.6,464.05h42.6s-19.24-21.61-42.6,0Z" style="opacity:.1;"></path></g><g><path d="M232.11,460.32c0,.34,.28,.62,.62,.62s.62-.28,.62-.62-.28-.62-.62-.62-.62,.28-.62,.62Z" style="opacity:.1;"></path><path d="M243.92,461.39c0,.34,.28,.62,.62,.62s.62-.28,.62-.62-.28-.62-.62-.62-.62,.28-.62,.62Z" style="opacity:.1;"></path><path d="M220.35,457.86c0,.34,.28,.62,.62,.62s.62-.28,.62-.62-.28-.62-.62-.62-.62,.28-.62,.62Z" style="opacity:.1;"></path><path d="M228.9,458.71c0,.25,.2,.44,.44,.44s.44-.2,.44-.44-.2-.44-.44-.44-.44,.2-.44,.44Z" style="opacity:.1;"></path><circle cx="241.44" cy="462.87" r=".44" style="opacity:.1;"></circle><path d="M216.97,461.39c0,.25,.2,.44,.44,.44s.44-.2,.44-.44-.2-.44-.44-.44-.44,.2-.44,.44Z" style="opacity:.1;"></path></g></g><g><g><path d="M370.4,464.05h42.6s-19.24-21.61-42.6,0Z" style="fill:#B0BEC5;"></path><path d="M370.4,464.05h42.6s-19.24-21.61-42.6,0Z" style="opacity:.1;"></path></g><g><path d="M394.91,460.32c0,.34,.28,.62,.62,.62s.62-.28,.62-.62-.28-.62-.62-.62-.62,.28-.62,.62Z" style="opacity:.1;"></path><path d="M406.72,461.39c0,.34,.28,.62,.62,.62s.62-.28,.62-.62-.28-.62-.62-.62-.62,.28-.62,.62Z" style="opacity:.1;"></path><path d="M383.15,457.86c0,.34,.28,.62,.62,.62s.62-.28,.62-.62-.28-.62-.62-.62-.62,.28-.62,.62Z" style="opacity:.1;"></path><circle cx="392.14" cy="458.71" r=".44" style="opacity:.1;"></circle><circle cx="404.24" cy="462.87" r=".44" style="opacity:.1;"></circle><path d="M379.77,461.39c0,.25,.2,.44,.44,.44s.44-.2,.44-.44-.2-.44-.44-.44-.44,.2-.44,.44Z" style="opacity:.1;"></path></g></g><g><g><path d="M400.2,464.05h30.2s-13.64-15.32-30.2,0Z" style="fill:#B0BEC5;"></path><path d="M400.2,464.05h30.2s-13.64-15.32-30.2,0Z" style="opacity:.3;"></path></g><g><path d="M418.15,461.86c0-.17-.14-.3-.3-.3s-.3,.14-.3,.3,.14,.3,.3,.3,.3-.14,.3-.3Z" style="opacity:.1;"></path><path d="M411.43,459.41c0-.17-.14-.3-.3-.3s-.3,.14-.3,.3,.14,.3,.3,.3,.3-.14,.3-.3Z" style="opacity:.1;"></path><path d="M412.37,461.34c0-.17-.14-.3-.3-.3s-.3,.14-.3,.3,.14,.3,.3,.3,.3-.14,.3-.3Z" style="opacity:.1;"></path><circle cx="405.88" cy="460.83" r=".3" style="opacity:.1;"></circle><path d="M423.91,463.06c0-.17-.14-.3-.3-.3s-.3,.14-.3,.3,.14,.3,.3,.3,.3-.14,.3-.3Z" style="opacity:.1;"></path><path d="M412.67,463.37c0-.17-.14-.3-.3-.3s-.3,.14-.3,.3,.14,.3,.3,.3,.3-.14,.3-.3Z" style="opacity:.1;"></path><path d="M419.72,462.65c0-.12-.1-.22-.22-.22s-.22,.1-.22,.22,.1,.22,.22,.22,.22-.1,.22-.22Z" style="opacity:.1;"></path><path d="M413.8,460.61c0-.12-.1-.22-.22-.22s-.22,.1-.22,.22,.1,.22,.22,.22,.22-.1,.22-.22Z" style="opacity:.1;"></path><path d="M421.27,460.05c0-.12-.1-.22-.22-.22s-.22,.1-.22,.22,.1,.22,.22,.22,.22-.1,.22-.22Z" style="opacity:.1;"></path><path d="M426.89,462.16c0-.12-.1-.22-.22-.22s-.22,.1-.22,.22,.1,.22,.22,.22,.22-.1,.22-.22Z" style="opacity:.1;"></path></g></g></g></g><g id="freepik--Fences--inject-226"><g><g><g><g><polygon points="184.22 448.33 184.03 449.66 183.83 451.08 182 464.05 179.01 464.05 180.84 451.08 181.04 449.66 181.23 448.33 184.22 448.33" style="fill:#B0BEC5;"></polygon><path d="M183.78,448.33c-.16,1.31-.33,2.62-.5,3.94l-.53,3.93-.55,3.93-.29,1.96-.3,1.96,.24-1.97,.25-1.97,.53-3.93,.55-3.93c.19-1.31,.38-2.62,.58-3.92Z" style="opacity:.1;"></path><polygon points="184.03 449.66 183.83 451.08 180.84 451.08 181.04 449.66 184.03 449.66" style="opacity:.1;"></polygon></g><g><polygon points="198.98 448.33 199.16 449.66 199.36 451.08 201.19 464.05 204.18 464.05 202.35 451.08 202.15 449.66 201.97 448.33 198.98 448.33" style="fill:#B0BEC5;"></polygon><path d="M199.42,448.33c.16,1.31,.33,2.62,.5,3.94l.53,3.93,.55,3.93,.29,1.96,.3,1.96-.24-1.97-.25-1.97-.53-3.93-.55-3.93c-.19-1.31-.38-2.62-.58-3.92Z" style="opacity:.1;"></path><polygon points="199.16 449.66 202.15 449.66 202.35 451.08 199.36 451.08 199.16 449.66" style="opacity:.1;"></polygon></g></g><g><polygon points="184.11 445.61 181.74 445.61 182.03 443.4 183.81 443.4 184.11 445.61" style="fill:#B0BEC5;"></polygon><polygon points="184.11 445.61 181.74 445.61 182.03 443.4 183.81 443.4 184.11 445.61" style="opacity:.1;"></polygon><g><circle cx="182.92" cy="441.82" r="2.21" style="fill:#B0BEC5;"></circle><circle cx="182.92" cy="441.82" r="1.68" style="fill:#fff;"></circle><g><path d="M184.33,441.73c-.03-.41-.24-.79-.55-1.03-.31-.24-.72-.36-1.13-.3-.39,.06-.75,.29-.97,.63-.22,.34-.3,.78-.18,1.21,.1,.35,.34,.65,.66,.83,.31,.18,.69,.23,1.03,.16,.34-.07,.65-.26,.86-.53,.21-.26,.34-.59,.35-.94,0-.02,0-.03-.01-.03,0,0-.02,.01-.02,.03,0,.14-.04,.27-.08,.4-.05,.13-.11,.25-.19,.36-.08,.11-.17,.21-.28,.3-.11,.09-.22,.16-.35,.23-.36,.17-.78,.18-1.15,.03-.37-.15-.66-.47-.78-.85-.13-.41-.06-.84,.15-1.18,.21-.33,.56-.57,.95-.62,.53-.08,1.07,.12,1.39,.55,.08,.11,.14,.23,.19,.35,.05,.12,.07,.26,.09,.39h0s0,0,0,0Z" style="fill:#B0BEC5;"></path><path d="M184.13,441.73c-.03-.35-.21-.67-.48-.88-.27-.21-.61-.3-.96-.26-.34,.05-.65,.24-.84,.54-.2,.29-.26,.68-.16,1.05,.08,.31,.29,.57,.57,.73,.27,.16,.6,.2,.9,.13,.3-.06,.56-.23,.75-.46,.18-.23,.29-.51,.31-.81,0-.01,0-.03-.01-.03,0,0-.02,.01-.02,.03-.02,.48-.33,.91-.77,1.12-.31,.15-.67,.16-.99,.03-.32-.13-.57-.41-.67-.74-.11-.35-.05-.73,.13-1.01,.18-.29,.49-.48,.81-.52,.45-.06,.9,.1,1.19,.47,.07,.09,.12,.19,.16,.3,.04,.11,.06,.22,.08,.33h0Z" style="fill:#B0BEC5;"></path><path d="M183.93,441.73c-.03-.3-.18-.56-.4-.73-.22-.17-.51-.25-.8-.22-.28,.03-.54,.2-.71,.44-.17,.24-.23,.57-.15,.89,.07,.26,.25,.49,.48,.62,.23,.13,.51,.17,.77,.11,.25-.06,.48-.2,.63-.4,.15-.2,.25-.44,.26-.69,0-.01,0-.02-.01-.02,0,0-.02,0-.02,.02-.02,.41-.28,.76-.65,.94-.26,.13-.57,.14-.84,.03-.27-.11-.49-.35-.57-.63-.09-.3-.04-.61,.12-.85,.16-.24,.41-.4,.68-.43,.19-.02,.37,0,.54,.06,.17,.06,.32,.17,.44,.32,.06,.08,.1,.16,.14,.24,.03,.09,.06,.18,.07,.28h0Z" style="fill:#B0BEC5;"></path><path d="M183.74,441.73c-.03-.24-.15-.44-.33-.58-.18-.13-.4-.2-.64-.18-.22,.02-.44,.15-.58,.34-.14,.19-.2,.46-.13,.73,.05,.22,.2,.41,.4,.52,.19,.11,.43,.14,.63,.09,.21-.05,.39-.17,.51-.33,.12-.16,.2-.36,.21-.56,0,0,0-.02-.01-.02,0,0-.02,0-.02,.02-.02,.33-.23,.61-.53,.76-.2,.11-.46,.12-.68,.03-.22-.09-.4-.28-.46-.51-.07-.24-.02-.5,.11-.69,.13-.19,.34-.31,.55-.33,.15-.01,.29,0,.43,.05,.13,.05,.26,.13,.35,.25,.05,.06,.08,.12,.11,.19,.03,.07,.05,.14,.06,.22h0Z" style="fill:#B0BEC5;"></path></g></g></g><g><polygon points="201.4 445.61 199.03 445.61 199.33 443.4 201.11 443.4 201.4 445.61" style="fill:#B0BEC5;"></polygon><polygon points="201.4 445.61 199.03 445.61 199.33 443.4 201.11 443.4 201.4 445.61" style="opacity:.1;"></polygon><g><path d="M202.43,441.82c0,1.22-.99,2.21-2.21,2.21s-2.21-.99-2.21-2.21,.99-2.21,2.21-2.21,2.21,.99,2.21,2.21Z" style="fill:#B0BEC5;"></path><path d="M201.9,441.82c0,.93-.75,1.68-1.68,1.68s-1.68-.75-1.68-1.68,.75-1.68,1.68-1.68,1.68,.75,1.68,1.68Z" style="fill:#fff;"></path><g><path d="M201.62,441.73c-.03-.41-.24-.79-.55-1.03-.31-.24-.72-.36-1.13-.3-.39,.06-.75,.29-.97,.63-.22,.34-.3,.78-.18,1.21,.1,.35,.34,.65,.66,.83,.31,.18,.69,.23,1.03,.16,.34-.07,.65-.26,.86-.53,.21-.26,.34-.59,.35-.94,0-.02,0-.03-.01-.03,0,0-.02,.01-.02,.03,0,.14-.04,.27-.08,.4-.05,.13-.11,.25-.19,.36-.08,.11-.17,.21-.28,.3-.11,.09-.22,.16-.35,.23-.36,.17-.78,.18-1.15,.03-.37-.15-.66-.47-.78-.85-.13-.41-.06-.84,.15-1.18,.21-.33,.56-.57,.95-.62,.53-.08,1.07,.12,1.39,.55,.08,.11,.14,.23,.19,.35,.05,.12,.07,.26,.09,.39h0s0,0,0,0Z" style="fill:#B0BEC5;"></path><path d="M201.43,441.73c-.03-.35-.21-.67-.48-.88-.27-.21-.61-.3-.96-.26-.34,.05-.65,.24-.84,.54-.2,.29-.26,.68-.16,1.05,.08,.31,.29,.57,.57,.73,.27,.16,.6,.2,.9,.13,.3-.06,.56-.23,.75-.46,.18-.23,.29-.51,.31-.81,0-.01,0-.03-.01-.03,0,0-.02,.01-.02,.03-.02,.48-.33,.91-.77,1.12-.31,.15-.68,.16-.99,.03-.32-.13-.57-.41-.67-.74-.11-.35-.05-.73,.13-1.01,.18-.29,.49-.48,.81-.52,.45-.06,.9,.1,1.19,.47,.07,.09,.12,.19,.16,.3,.04,.11,.06,.22,.08,.33h0Z" style="fill:#B0BEC5;"></path><path d="M201.23,441.73c-.03-.3-.18-.56-.4-.73-.22-.17-.51-.25-.8-.22-.28,.03-.54,.2-.71,.44-.17,.24-.23,.57-.15,.89,.07,.26,.25,.49,.48,.62,.23,.13,.51,.17,.77,.11,.25-.06,.48-.2,.63-.4,.15-.2,.25-.44,.26-.69,0-.01,0-.02-.01-.02,0,0-.02,0-.02,.02-.02,.41-.28,.76-.65,.94-.26,.13-.57,.14-.84,.03-.27-.11-.49-.35-.57-.63-.09-.3-.04-.61,.12-.85,.16-.24,.41-.4,.68-.43,.19-.02,.37,0,.54,.06,.17,.06,.32,.17,.44,.32,.06,.08,.1,.16,.14,.24,.03,.09,.06,.18,.07,.28h0Z" style="fill:#B0BEC5;"></path><path d="M201.03,441.73c-.03-.24-.15-.44-.33-.58-.18-.13-.4-.2-.64-.18-.22,.02-.44,.15-.58,.34-.14,.19-.2,.46-.13,.73,.05,.22,.2,.41,.4,.52,.19,.11,.43,.14,.63,.09,.21-.05,.39-.17,.51-.33,.12-.16,.2-.36,.21-.56,0,0,0-.02-.01-.02,0,0-.02,0-.02,.02-.02,.33-.23,.61-.53,.76-.2,.11-.46,.12-.68,.03-.22-.09-.4-.28-.46-.51-.07-.24-.02-.5,.11-.69,.13-.19,.34-.31,.55-.33,.15-.01,.29,0,.43,.05,.13,.05,.26,.13,.35,.25,.05,.06,.08,.12,.11,.19,.03,.07,.05,.14,.06,.22h0Z" style="fill:#B0BEC5;"></path></g></g></g><g><g><rect x="176.7" y="444.49" width="29.79" height="5.7" style="fill:#fff;"></rect><path d="M206.56,450.26h-29.93v-5.84h29.93v5.84Zm-29.79-.14h29.65v-5.56h-29.65v5.56Z" style="fill:#263238;"></path></g><g><polygon points="182.82 444.49 180.66 450.19 176.81 450.19 178.98 444.49 182.82 444.49" style="fill:#B0BEC5;"></polygon><polygon points="190.71 444.49 188.55 450.19 184.7 450.19 186.86 444.49 190.71 444.49" style="fill:#B0BEC5;"></polygon><polygon points="198.6 444.49 196.43 450.19 192.59 450.19 194.75 444.49 198.6 444.49" style="fill:#B0BEC5;"></polygon><polygon points="206.48 444.49 204.32 450.19 200.47 450.19 202.63 444.49 206.48 444.49" style="fill:#B0BEC5;"></polygon></g></g><g><g><rect x="177.3" y="457.15" width="28.58" height="3.61" style="fill:#fff;"></rect><path d="M205.96,460.83h-28.73v-3.75h28.73v3.75Zm-28.58-.14h28.44v-3.46h-28.44v3.46Z" style="fill:#263238;"></path></g><g><polygon points="183.18 457.15 181.1 460.76 177.41 460.76 179.49 457.15 183.18 457.15" style="fill:#B0BEC5;"></polygon><polygon points="190.75 457.15 188.67 460.76 184.98 460.76 187.05 457.15 190.75 457.15" style="fill:#B0BEC5;"></polygon><polygon points="198.31 457.15 196.24 460.76 192.55 460.76 194.62 457.15 198.31 457.15" style="fill:#B0BEC5;"></polygon><polygon points="205.88 457.15 203.8 460.76 200.11 460.76 202.19 457.15 205.88 457.15" style="fill:#B0BEC5;"></polygon></g></g><g><g><path d="M196.23,447.34c0,2.56-2.08,4.64-4.64,4.64s-4.64-2.08-4.64-4.64,2.08-4.64,4.64-4.64,4.64,2.08,4.64,4.64Z" style="fill:#fff;"></path><path d="M191.6,452.04c-2.6,0-4.71-2.11-4.71-4.71s2.11-4.71,4.71-4.71,4.71,2.11,4.71,4.71-2.11,4.71-4.71,4.71Zm0-9.27c-2.52,0-4.56,2.05-4.56,4.57s2.05,4.56,4.56,4.56,4.56-2.05,4.56-4.56-2.05-4.57-4.56-4.57Z" style="fill:#263238;"></path></g><path d="M195.53,447.34c0,2.17-1.76,3.93-3.93,3.93s-3.93-1.76-3.93-3.93,1.76-3.93,3.93-3.93,3.93,1.76,3.93,3.93Z" style="fill:#B0BEC5;"></path><rect x="189.13" y="446.88" width="4.93" height=".91" style="fill:#fff;"></rect></g></g><g><g><g><polygon points="359.83 448.33 359.64 449.66 359.44 451.08 357.61 464.05 354.62 464.05 356.45 451.08 356.65 449.66 356.84 448.33 359.83 448.33" style="fill:#B0BEC5;"></polygon><path d="M359.4,448.33c-.16,1.31-.33,2.62-.5,3.94l-.53,3.93-.55,3.93-.29,1.96-.3,1.96,.24-1.97,.25-1.97,.53-3.93,.55-3.93c.19-1.31,.38-2.62,.58-3.92Z" style="opacity:.1;"></path><polygon points="359.64 449.66 359.44 451.08 356.45 451.08 356.65 449.66 359.64 449.66" style="opacity:.1;"></polygon></g><g><polygon points="374.59 448.33 374.77 449.66 374.98 451.08 376.8 464.05 379.79 464.05 377.97 451.08 377.76 449.66 377.58 448.33 374.59 448.33" style="fill:#B0BEC5;"></polygon><path d="M375.03,448.33c.16,1.31,.33,2.62,.5,3.94l.53,3.93,.55,3.93,.29,1.96,.3,1.96-.24-1.97-.25-1.97-.53-3.93-.55-3.93c-.19-1.31-.38-2.62-.58-3.92Z" style="opacity:.1;"></path><polygon points="374.77 449.66 377.76 449.66 377.97 451.08 374.98 451.08 374.77 449.66" style="opacity:.1;"></polygon></g></g><g><polygon points="359.72 445.61 357.35 445.61 357.64 443.4 359.43 443.4 359.72 445.61" style="fill:#B0BEC5;"></polygon><polygon points="359.72 445.61 357.35 445.61 357.64 443.4 359.43 443.4 359.72 445.61" style="opacity:.1;"></polygon><g><path d="M360.74,441.82c0,1.22-.99,2.21-2.21,2.21s-2.21-.99-2.21-2.21,.99-2.21,2.21-2.21,2.21,.99,2.21,2.21Z" style="fill:#B0BEC5;"></path><path d="M360.21,441.82c0,.93-.75,1.68-1.68,1.68s-1.68-.75-1.68-1.68,.75-1.68,1.68-1.68,1.68,.75,1.68,1.68Z" style="fill:#fff;"></path><g><path d="M359.94,441.73c-.03-.41-.24-.79-.55-1.03-.31-.24-.72-.36-1.13-.3-.39,.06-.75,.29-.97,.63-.22,.34-.3,.78-.18,1.21,.1,.35,.34,.65,.66,.83,.31,.18,.69,.23,1.03,.16,.34-.07,.65-.26,.86-.53,.21-.26,.34-.59,.35-.94,0-.02,0-.03-.01-.03,0,0-.02,.01-.02,.03,0,.14-.04,.27-.08,.4-.05,.13-.11,.25-.19,.36-.08,.11-.17,.21-.28,.3-.11,.09-.22,.16-.35,.23-.36,.17-.78,.18-1.15,.03-.37-.15-.66-.47-.78-.85-.13-.41-.06-.84,.15-1.18,.21-.33,.56-.57,.95-.62,.53-.08,1.07,.12,1.39,.55,.08,.11,.14,.23,.19,.35,.05,.12,.07,.26,.09,.39h0s0,0,0,0Z" style="fill:#B0BEC5;"></path><path d="M359.74,441.73c-.03-.35-.21-.67-.48-.88-.27-.21-.61-.3-.96-.26-.34,.05-.65,.24-.84,.54-.2,.29-.26,.68-.16,1.05,.08,.31,.29,.57,.57,.73,.27,.16,.6,.2,.9,.13,.3-.06,.56-.23,.75-.46,.18-.23,.29-.51,.31-.81,0-.01,0-.03-.01-.03,0,0-.02,.01-.02,.03-.02,.48-.33,.91-.77,1.12-.31,.15-.67,.16-.99,.03-.32-.13-.57-.41-.67-.74-.11-.35-.05-.73,.13-1.01,.18-.29,.49-.48,.81-.52,.45-.06,.9,.1,1.19,.47,.07,.09,.12,.19,.16,.3,.04,.11,.06,.22,.08,.33h0Z" style="fill:#B0BEC5;"></path><path d="M359.55,441.73c-.03-.3-.18-.56-.4-.73-.22-.17-.51-.25-.8-.22-.28,.03-.54,.2-.71,.44-.17,.24-.23,.57-.15,.89,.07,.26,.25,.49,.48,.62,.23,.13,.51,.17,.77,.11,.25-.06,.48-.2,.63-.4,.15-.2,.25-.44,.26-.69,0-.01,0-.02-.01-.02,0,0-.02,0-.02,.02-.02,.41-.28,.76-.65,.94-.26,.13-.57,.14-.84,.03-.27-.11-.49-.35-.57-.63-.09-.3-.04-.61,.12-.85,.16-.24,.41-.4,.68-.43,.19-.02,.37,0,.54,.06,.17,.06,.32,.17,.44,.32,.06,.08,.1,.16,.14,.24,.03,.09,.06,.18,.07,.28h0Z" style="fill:#B0BEC5;"></path><path d="M359.35,441.73c-.03-.24-.15-.44-.33-.58-.18-.13-.4-.2-.64-.18-.22,.02-.44,.15-.58,.34-.14,.19-.2,.46-.13,.73,.05,.22,.2,.41,.4,.52,.19,.11,.43,.14,.63,.09,.21-.05,.39-.17,.51-.33,.12-.16,.2-.36,.21-.56,0,0,0-.02-.01-.02,0,0-.02,0-.02,.02-.02,.33-.23,.61-.53,.76-.2,.11-.46,.12-.68,.03-.22-.09-.4-.28-.46-.51-.07-.24-.02-.5,.11-.69,.13-.19,.34-.31,.55-.33,.15-.01,.29,0,.43,.05,.13,.05,.26,.13,.35,.25,.05,.06,.08,.12,.11,.19,.03,.07,.05,.14,.06,.22h0Z" style="fill:#B0BEC5;"></path></g></g></g><g><polygon points="377.02 445.61 374.65 445.61 374.94 443.4 376.72 443.4 377.02 445.61" style="fill:#B0BEC5;"></polygon><polygon points="377.02 445.61 374.65 445.61 374.94 443.4 376.72 443.4 377.02 445.61" style="opacity:.1;"></polygon><g><path d="M378.04,441.82c0,1.22-.99,2.21-2.21,2.21s-2.21-.99-2.21-2.21,.99-2.21,2.21-2.21,2.21,.99,2.21,2.21Z" style="fill:#B0BEC5;"></path><path d="M377.51,441.82c0,.93-.75,1.68-1.68,1.68s-1.68-.75-1.68-1.68,.75-1.68,1.68-1.68,1.68,.75,1.68,1.68Z" style="fill:#fff;"></path><g><path d="M377.24,441.73c-.03-.41-.24-.79-.55-1.03-.31-.24-.72-.36-1.13-.3-.39,.06-.75,.29-.97,.63-.22,.34-.3,.78-.18,1.21,.1,.35,.34,.65,.66,.83,.31,.18,.69,.23,1.03,.16,.34-.07,.65-.26,.86-.53,.21-.26,.34-.59,.35-.94,0-.02,0-.03-.01-.03,0,0-.02,.01-.02,.03,0,.14-.04,.27-.08,.4-.05,.13-.11,.25-.19,.36-.08,.11-.17,.21-.28,.3-.11,.09-.22,.16-.35,.23-.36,.17-.78,.18-1.15,.03-.37-.15-.66-.47-.78-.85-.13-.41-.06-.84,.15-1.18,.21-.33,.56-.57,.95-.62,.53-.08,1.07,.12,1.39,.55,.08,.11,.14,.23,.19,.35,.05,.12,.07,.26,.09,.39h0s0,0,0,0Z" style="fill:#B0BEC5;"></path><path d="M377.04,441.73c-.03-.35-.21-.67-.48-.88-.27-.21-.61-.3-.96-.26-.34,.05-.65,.24-.84,.54-.2,.29-.26,.68-.16,1.05,.08,.31,.29,.57,.57,.73,.27,.16,.6,.2,.9,.13,.3-.06,.56-.23,.75-.46,.18-.23,.29-.51,.31-.81,0-.01,0-.03-.01-.03,0,0-.02,.01-.02,.03-.02,.48-.33,.91-.77,1.12-.31,.15-.68,.16-.99,.03-.32-.13-.57-.41-.67-.74-.11-.35-.05-.73,.13-1.01,.18-.29,.49-.48,.81-.52,.45-.06,.9,.1,1.19,.47,.07,.09,.12,.19,.16,.3,.04,.11,.06,.22,.08,.33h0Z" style="fill:#B0BEC5;"></path><path d="M376.84,441.73c-.03-.3-.18-.56-.4-.73-.22-.17-.51-.25-.8-.22-.28,.03-.54,.2-.71,.44-.17,.24-.23,.57-.15,.89,.07,.26,.25,.49,.48,.62,.23,.13,.51,.17,.77,.11,.25-.06,.48-.2,.63-.4,.15-.2,.25-.44,.26-.69,0-.01,0-.02-.01-.02,0,0-.02,0-.02,.02-.02,.41-.28,.76-.65,.94-.26,.13-.57,.14-.84,.03-.27-.11-.49-.35-.57-.63-.09-.3-.04-.61,.12-.85,.16-.24,.41-.4,.68-.43,.19-.02,.37,0,.54,.06,.17,.06,.32,.17,.44,.32,.06,.08,.1,.16,.14,.24,.03,.09,.06,.18,.07,.28h0Z" style="fill:#B0BEC5;"></path><path d="M376.65,441.73c-.03-.24-.15-.44-.33-.58-.18-.13-.4-.2-.64-.18-.22,.02-.44,.15-.58,.34-.14,.19-.2,.46-.13,.73,.05,.22,.2,.41,.4,.52,.19,.11,.43,.14,.63,.09,.21-.05,.39-.17,.51-.33,.12-.16,.2-.36,.21-.56,0,0,0-.02-.01-.02,0,0-.02,0-.02,.02-.02,.33-.23,.61-.53,.76-.2,.11-.46,.12-.68,.03-.22-.09-.4-.28-.46-.51-.07-.24-.02-.5,.11-.69,.13-.19,.34-.31,.55-.33,.15-.01,.29,0,.43,.05,.13,.05,.26,.13,.35,.25,.05,.06,.08,.12,.11,.19,.03,.07,.05,.14,.06,.22h0Z" style="fill:#B0BEC5;"></path></g></g></g><g><g><rect x="352.31" y="444.49" width="29.79" height="5.7" style="fill:#fff;"></rect><path d="M382.17,450.26h-29.93v-5.84h29.93v5.84Zm-29.79-.14h29.65v-5.56h-29.65v5.56Z" style="fill:#263238;"></path></g><g><polygon points="358.44 444.49 356.27 450.19 352.43 450.19 354.59 444.49 358.44 444.49" style="fill:#B0BEC5;"></polygon><polygon points="366.32 444.49 364.16 450.19 360.31 450.19 362.47 444.49 366.32 444.49" style="fill:#B0BEC5;"></polygon><polygon points="374.21 444.49 372.05 450.19 368.2 450.19 370.36 444.49 374.21 444.49" style="fill:#B0BEC5;"></polygon><polygon points="382.09 444.49 379.93 450.19 376.08 450.19 378.25 444.49 382.09 444.49" style="fill:#B0BEC5;"></polygon></g></g><g><g><rect x="352.92" y="457.15" width="28.58" height="3.61" style="fill:#fff;"></rect><path d="M381.57,460.83h-28.73v-3.75h28.73v3.75Zm-28.58-.14h28.44v-3.46h-28.44v3.46Z" style="fill:#263238;"></path></g><g><polygon points="358.79 457.15 356.72 460.76 353.03 460.76 355.1 457.15 358.79 457.15" style="fill:#B0BEC5;"></polygon><polygon points="366.36 457.15 364.28 460.76 360.59 460.76 362.67 457.15 366.36 457.15" style="fill:#B0BEC5;"></polygon><polygon points="373.92 457.15 371.85 460.76 368.16 460.76 370.23 457.15 373.92 457.15" style="fill:#B0BEC5;"></polygon><polygon points="381.49 457.15 379.42 460.76 375.72 460.76 377.8 457.15 381.49 457.15" style="fill:#B0BEC5;"></polygon></g></g><g><g><path d="M371.84,447.34c0,2.56-2.08,4.64-4.64,4.64s-4.64-2.08-4.64-4.64,2.08-4.64,4.64-4.64,4.64,2.08,4.64,4.64Z" style="fill:#fff;"></path><path d="M367.21,452.04c-2.6,0-4.71-2.11-4.71-4.71s2.11-4.71,4.71-4.71,4.71,2.11,4.71,4.71-2.11,4.71-4.71,4.71Zm0-9.27c-2.52,0-4.56,2.05-4.56,4.57s2.05,4.56,4.56,4.56,4.56-2.05,4.56-4.56-2.05-4.57-4.56-4.57Z" style="fill:#263238;"></path></g><path d="M371.14,447.34c0,2.17-1.76,3.93-3.93,3.93s-3.93-1.76-3.93-3.93,1.76-3.93,3.93-3.93,3.93,1.76,3.93,3.93Z" style="fill:#B0BEC5;"></path><rect x="364.74" y="446.88" width="4.93" height=".91" style="fill:#fff;"></rect></g></g></g></g></svg>
